<?xml version="1.0" encoding="UTF-8"?>
<!DOCTYPE svg PUBLIC "-//W3C//DTD SVG 1.1//EN" "http://www.w3.org/Graphics/SVG/1.1/DTD/svg11.dtd">
<svg xmlns="http://www.w3.org/2000/svg" version="1.1" width="512px" height="512px" style="shape-rendering:geometricPrecision; text-rendering:geometricPrecision; image-rendering:optimizeQuality; fill-rule:evenodd; clip-rule:evenodd" xmlns:xlink="http://www.w3.org/1999/xlink">
<g><path style="opacity:1" fill="#fefffe" d="M 232.5,-0.5 C 247.833,-0.5 263.167,-0.5 278.5,-0.5C 368.144,10.3879 435.644,54.7213 481,132.5C 497.695,163.971 507.861,197.304 511.5,232.5C 511.5,247.833 511.5,263.167 511.5,278.5C 500.612,368.144 456.279,435.644 378.5,481C 347.029,497.695 313.696,507.861 278.5,511.5C 263.167,511.5 247.833,511.5 232.5,511.5C 142.856,500.612 75.3562,456.279 30,378.5C 13.3053,347.029 3.1386,313.696 -0.5,278.5C -0.5,263.167 -0.5,247.833 -0.5,232.5C 10.3875,142.857 54.7208,75.3573 132.5,30C 163.971,13.3053 197.304,3.1386 232.5,-0.5 Z M 246.5,64.5 C 286.455,63.3618 323.288,73.3618 357,94.5C 357.667,95.5 357.667,96.5 357,97.5C 270.5,184 184,270.5 97.5,357C 96.5,357.667 95.5,357.667 94.5,357C 61.1871,301.75 56.0204,243.916 79,183.5C 111.947,111.764 167.78,72.0975 246.5,64.5 Z M 413.5,153.5 C 414.552,153.351 415.552,153.517 416.5,154C 455.922,220.811 456.422,287.978 418,355.5C 369.134,427.166 301.634,455.999 215.5,442C 194.147,437.322 174.147,429.322 155.5,418C 153.789,416.867 153.289,415.367 154,413.5C 240.701,326.965 327.201,240.299 413.5,153.5 Z"/></g>
</svg>
