<?xml version="1.0" encoding="UTF-8"?>
<!DOCTYPE svg PUBLIC "-//W3C//DTD SVG 1.1//EN" "http://www.w3.org/Graphics/SVG/1.1/DTD/svg11.dtd">
<svg xmlns="http://www.w3.org/2000/svg" version="1.1" width="512px" height="512px" style="shape-rendering:geometricPrecision; text-rendering:geometricPrecision; image-rendering:optimizeQuality; fill-rule:evenodd; clip-rule:evenodd" xmlns:xlink="http://www.w3.org/1999/xlink">
<g><path style="opacity:1" fill="#fefffe" d="M 211.5,-0.5 C 240.833,-0.5 270.167,-0.5 299.5,-0.5C 312.887,3.72472 321.387,12.7247 325,26.5C 325.5,79.499 325.667,132.499 325.5,185.5C 378.501,185.333 431.501,185.5 484.5,186C 498.275,189.613 507.275,198.113 511.5,211.5C 511.5,240.833 511.5,270.167 511.5,299.5C 507.275,312.887 498.275,321.387 484.5,325C 431.501,325.5 378.501,325.667 325.5,325.5C 325.667,378.501 325.5,431.501 325,484.5C 321.387,498.275 312.887,507.275 299.5,511.5C 270.167,511.5 240.833,511.5 211.5,511.5C 198.113,507.275 189.613,498.275 186,484.5C 185.5,431.501 185.333,378.501 185.5,325.5C 132.499,325.667 79.499,325.5 26.5,325C 12.7247,321.387 3.72472,312.887 -0.5,299.5C -0.5,270.167 -0.5,240.833 -0.5,211.5C 3.72472,198.113 12.7247,189.613 26.5,186C 79.499,185.5 132.499,185.333 185.5,185.5C 185.333,132.499 185.5,79.499 186,26.5C 189.613,12.7247 198.113,3.72472 211.5,-0.5 Z"/></g>
</svg>
