<?xml version="1.0" standalone="no"?>
<!DOCTYPE svg PUBLIC "-//W3C//DTD SVG 20010904//EN"
 "http://www.w3.org/TR/2001/REC-SVG-20010904/DTD/svg10.dtd">
<svg version="1.0" xmlns="http://www.w3.org/2000/svg"
 width="3840.000000pt" height="2160.000000pt" viewBox="0 0 3840.000000 2160.000000"
 preserveAspectRatio="xMidYMid meet">

<g transform="translate(0.000000,2160.000000) scale(0.100000,-0.100000)"
fill="#000000" stroke="none">
<path d="M0 10800 l0 -10800 19200 0 19200 0 0 10800 0 10800 -19200 0 -19200
0 0 -10800z m15000 9795 c0 -8 -7 -15 -15 -15 -8 0 -15 7 -15 15 0 8 7 15 15
15 8 0 15 -7 15 -15z m-977 -71 c-6 -17 -39 -19 -49 -2 -10 17 26 40 42 27 7
-6 10 -17 7 -25z m13617 -349 c0 -21 -19 -28 -35 -15 -16 14 -21 35 -6 25 5
-3 12 -1 16 5 8 13 25 3 25 -15z m-2900 -305 c0 -5 -4 -10 -10 -10 -5 0 -10 5
-10 10 0 6 5 10 10 10 6 0 10 -4 10 -10z m-1501 -229 c-1 -30 -15 -52 -42 -66
-24 -12 -28 -12 -37 5 -7 13 -17 16 -32 13 l-23 -6 20 23 c14 16 16 24 8 27
-21 7 -15 20 12 27 14 4 25 11 25 16 0 5 16 2 35 -7 19 -9 35 -24 34 -32z
m-8171 -162 c-2 -6 -8 -10 -13 -10 -5 0 -11 4 -13 10 -2 6 4 11 13 11 9 0 15
-5 13 -11z m-1922 -20 c10 -17 -13 -36 -27 -22 -12 12 -4 33 11 33 5 0 12 -5
16 -11z m16822 -88 c-2 -9 -11 -17 -21 -19 -21 -4 -35 27 -17 38 19 12 42 0
38 -19z m-19928 -95 c0 -8 -5 -18 -11 -22 -14 -8 -33 11 -25 25 10 16 36 13
36 -3z m5320 -242 c11 -12 11 -18 -1 -30 -13 -12 -18 -12 -34 0 -16 12 -17 16
-6 30 17 20 25 20 41 0z m-1822 -42 c3 -28 0 -32 -22 -32 -34 0 -50 29 -28 53
24 26 46 17 50 -21z m4451 -168 c231 -34 510 -122 669 -212 183 -102 447 -342
515 -467 42 -76 38 -74 -45 30 -194 241 -389 384 -695 509 -238 98 -421 131
-718 131 -178 0 -227 -4 -322 -23 -198 -40 -364 -108 -547 -226 -112 -72 -118
-74 -62 -21 27 25 79 63 115 85 123 73 382 163 556 194 112 20 400 20 534 0z
m3349 0 c255 -52 497 -175 602 -306 61 -77 48 -78 -32 -3 -227 214 -520 318
-848 301 -287 -15 -488 -88 -715 -262 -61 -46 -37 -7 28 46 122 100 366 197
587 233 69 11 306 6 378 -9z m3447 -34 c109 -22 195 -49 195 -62 0 -11 3 -11
-102 16 -147 38 -270 50 -462 43 -302 -10 -484 -62 -833 -238 -106 -53 -193
-93 -193 -90 0 12 165 110 260 155 173 81 453 165 638 191 131 19 365 12 497
-15z m-9992 -38 c294 -71 442 -154 618 -343 115 -125 146 -165 159 -207 4 -15
11 -36 15 -47 5 -11 -28 35 -73 101 -88 132 -150 194 -277 279 -143 95 -289
160 -445 198 -80 19 -120 21 -670 24 -369 3 -589 8 -595 14 -7 7 190 9 585 6
566 -3 599 -5 683 -25z m11722 -58 c12 -12 13 -19 4 -30 -16 -19 -36 -17 -48
4 -7 13 -6 23 1 30 16 16 24 15 43 -4z m-14610 -335 c8 -24 -1 -39 -25 -39
-20 0 -29 16 -23 40 6 23 41 22 48 -1z m10185 -64 c4 -11 10 -36 14 -55 5 -28
0 -21 -24 29 -16 35 -30 66 -30 69 0 11 33 -24 40 -43z m1140 41 c0 -2 -48
-45 -106 -96 -109 -96 -122 -81 -14 17 54 49 120 93 120 79z m-6701 -68 c-61
-80 -65 -74 -6 9 17 24 32 41 35 38 2 -2 -10 -23 -29 -47z m2770 -328 c16 -30
32 -72 35 -93 4 -21 9 -46 12 -55 3 -9 -6 3 -19 28 -13 25 -29 54 -35 65 -7
11 -25 54 -42 95 -29 74 -29 74 -5 45 14 -16 38 -55 54 -85z m-9289 54 c0 -8
-9 -14 -20 -14 -19 0 -27 19 -14 33 10 9 34 -4 34 -19z m12835 -71 c-31 -55
-91 -121 -79 -88 21 55 79 133 102 135 2 0 -8 -21 -23 -47z m-7166 -58 l-1
-40 -13 35 c-7 19 -13 51 -13 70 l0 35 13 -30 c8 -16 14 -48 14 -70z m-1305
-20 l7 -50 -16 35 c-9 19 -18 55 -21 80 l-4 45 14 -30 c8 -17 17 -53 20 -80z
m1966 55 c-6 -23 -13 -40 -15 -38 -2 2 1 23 7 46 6 24 13 41 15 38 2 -2 -1
-23 -7 -46z m-426 14 c18 -26 18 -26 -7 -50 -33 -31 -68 -31 -95 1 l-21 24 22
25 c30 35 76 34 101 0z m-1596 -39 c46 -15 19 -25 -73 -27 -252 -4 -322 -1
-308 13 7 7 29 15 50 19 46 9 299 5 331 -5z m1267 6 c6 -1 3 -5 -5 -11 -9 -6
-17 -5 -22 3 -6 9 -10 9 -15 1 -10 -14 -273 -19 -273 -5 0 6 6 8 13 6 6 -3 32
-1 57 3 37 7 205 9 245 3z m6305 -2 c0 -5 -25 -9 -55 -9 -30 0 -55 4 -55 10 0
5 25 9 55 9 30 -1 55 -5 55 -10z m1057 -2 c3 -4 11 -3 17 2 13 11 108 2 101
-9 -3 -5 -53 -9 -111 -9 -70 -1 -103 2 -99 9 4 6 11 8 16 5 5 -4 9 -1 9 4 0
11 55 9 67 -2z m-1000 -3 c-3 -3 -12 -4 -19 -1 -8 3 -5 6 6 6 11 1 17 -2 13
-5z m1191 -11 c-10 -2 -26 -2 -35 0 -10 3 -2 5 17 5 19 0 27 -2 18 -5z m55 0
c-7 -2 -19 -2 -25 0 -7 3 -2 5 12 5 14 0 19 -2 13 -5z m-8283 -29 c0 -8 -4
-12 -10 -9 -5 3 -10 10 -10 16 0 5 5 9 10 9 6 0 10 -7 10 -16z m4511 -283 c3
-43 -3 -127 -8 -108 -4 15 -23 17 -217 17 -210 0 -324 11 -338 33 -14 22 -39
119 -33 125 4 4 129 8 279 10 l272 4 -3 32 c-3 23 2 17 21 -28 14 -33 26 -71
27 -85z m-4956 -36 l11 -50 193 -3 c188 -2 195 -2 248 23 32 14 83 52 124 91
38 37 69 61 69 53 0 -12 29 -13 172 -11 95 2 224 0 287 -3 l113 -7 -6 -42 c-8
-45 -38 -111 -52 -112 -5 0 -54 -5 -109 -12 -55 -6 -176 -14 -270 -16 -201 -6
-297 -15 -289 -27 3 -5 -7 -4 -21 1 -34 13 -35 13 -29 -4 4 -10 -2 -12 -20 -9
-16 3 -26 1 -26 -6 0 -8 18 -12 48 -12 108 1 609 -18 631 -23 35 -8 37 -13 16
-54 -39 -73 -139 -159 -248 -212 -166 -81 -222 -92 -499 -97 -172 -4 -238 -9
-238 -17 0 -17 50 -69 87 -91 18 -11 33 -29 36 -44 3 -14 8 -36 12 -48 5 -17
1 -24 -22 -35 -35 -16 -42 -62 -18 -124 18 -47 22 -49 90 -59 25 -4 49 -14 52
-21 3 -8 12 -14 20 -14 10 0 12 -6 8 -19 -4 -14 1 -25 19 -37 14 -9 24 -20 21
-24 -3 -5 1 -11 7 -14 11 -5 11 -7 0 -12 -6 -3 -10 -9 -7 -14 3 -4 -27 -18
-65 -29 -69 -21 -74 -26 -71 -66 7 -78 34 -99 154 -126 31 -7 57 -16 57 -21 0
-4 0 -10 0 -13 -1 -11 25 -33 33 -28 4 2 7 0 7 -6 0 -5 -4 -13 -10 -16 -16
-10 -5 -48 16 -55 18 -7 18 -7 -2 -18 -11 -6 -41 -13 -66 -16 -26 -3 -59 -11
-75 -17 -82 -32 -509 -52 -620 -29 -26 5 -61 12 -78 15 -16 3 -111 9 -210 12
-201 6 -218 12 -213 67 2 24 9 32 26 34 19 3 21 6 11 18 -9 11 -8 14 5 14 10
0 14 5 11 10 -6 9 8 14 28 11 4 0 7 4 7 10 0 5 4 8 9 5 5 -4 11 -2 13 3 1 5
55 12 117 16 63 4 122 11 130 16 9 4 28 10 44 14 23 5 27 10 27 41 0 73 -37
105 -140 120 -25 4 -53 11 -62 16 -19 9 -25 38 -8 38 10 0 37 54 42 85 3 22
33 44 60 45 9 0 21 14 27 31 15 44 -1 97 -41 138 -35 36 -39 48 -37 126 1 28
1 69 1 92 -1 46 -28 151 -46 172 -6 8 -11 24 -12 35 0 12 -6 53 -13 93 -7 40
-10 76 -7 81 6 10 80 22 181 27 57 4 335 14 383 15 7 0 10 5 7 11 -4 6 -13 8
-20 5 -8 -3 -15 0 -17 6 -2 6 -71 12 -188 14 -154 3 -270 10 -325 20 -5 1 -20
2 -31 3 -24 1 -49 51 -60 120 l-6 39 78 9 c44 4 170 8 281 8 l203 0 0 25 c0
21 4 17 22 -20 11 -25 26 -67 33 -95z m8493 100 c152 0 290 -4 305 -8 l28 -8
-32 -57 c-18 -31 -38 -64 -46 -73 -24 -28 -169 -42 -369 -35 -251 8 -234 5
-234 42 0 53 61 191 68 154 2 -13 43 -15 280 -15z m5882 -6 c0 -24 -29 -37
-40 -18 -12 18 7 50 25 43 8 -4 15 -15 15 -25z m-8286 12 c29 -6 31 -10 34
-53 2 -28 -3 -59 -12 -77 -14 -26 -23 -30 -71 -36 -55 -7 -404 0 -459 9 -38 6
-46 20 -46 81 0 61 7 72 45 78 44 7 473 5 509 -2z m1534 -5 c11 -11 1 -109
-13 -137 -12 -22 -23 -29 -48 -30 -323 -9 -488 -2 -511 21 -9 9 -10 102 0 132
4 14 20 18 82 20 117 5 484 0 490 -6z m-5250 -2 c24 -7 28 -32 16 -93 -13 -62
-41 -69 -289 -71 -153 -1 -265 8 -283 22 -9 8 -12 31 -10 72 l3 61 50 6 c68 8
484 10 513 3z m-3874 -40 c21 -8 21 -50 0 -58 -57 -22 -73 40 -17 63 1 1 8 -2
17 -5z m6472 -325 c5 -68 4 -90 -9 -110 -17 -26 -57 -201 -57 -249 0 -40 -28
-108 -50 -120 -9 -5 -36 -40 -58 -78 -34 -57 -41 -77 -39 -115 1 -33 -2 -47
-11 -47 -7 0 -10 -4 -7 -10 3 -5 -1 -10 -10 -10 -11 0 -15 -5 -11 -15 3 -10
-1 -15 -12 -15 -11 0 -18 -9 -19 -26 -1 -28 -17 -44 -45 -44 -9 0 -40 -13 -68
-30 -28 -16 -55 -30 -61 -30 -13 0 -84 -53 -88 -65 -2 -5 -12 -21 -22 -34 -11
-13 -18 -25 -17 -26 2 -2 21 -6 43 -10 74 -12 120 -22 108 -24 -18 -2 -16 -31
2 -31 9 0 12 -6 8 -17 -5 -12 -1 -11 15 5 12 12 22 29 22 37 0 8 7 15 15 15 8
0 15 -7 15 -16 0 -8 -4 -12 -10 -9 -6 4 -7 -1 -3 -10 3 -10 0 -21 -8 -25 -7
-5 -11 -12 -7 -15 3 -3 19 12 34 34 33 47 67 56 61 16 -1 -13 -6 -27 -10 -31
-12 -12 -8 -24 7 -24 19 0 30 32 14 42 -9 5 -7 8 8 8 12 0 27 7 34 15 14 17
35 21 25 4 -4 -5 -4 -21 -1 -35 5 -19 10 -23 23 -16 9 5 24 7 33 5 10 -3 20 2
23 11 4 9 2 16 -3 16 -6 0 -10 7 -10 15 0 12 3 13 19 3 11 -7 18 -15 16 -18
-7 -12 22 -38 51 -44 26 -6 32 -3 43 20 6 15 15 24 18 20 3 -3 12 -1 20 5 10
9 13 7 14 -7 0 -16 2 -16 9 4 10 23 30 30 30 10 0 -28 33 -48 81 -48 41 0 47
-2 42 -19 -3 -12 2 -20 16 -24 12 -3 21 -1 21 4 0 5 3 8 8 7 15 -4 52 14 52
25 0 7 5 4 11 -6 8 -14 14 -16 25 -6 11 9 14 8 14 -2 1 -8 7 -2 16 13 8 15 23
32 34 38 11 6 20 17 20 24 0 8 18 21 40 30 33 13 41 22 50 57 14 52 6 103 -22
131 -17 17 -19 28 -13 62 3 22 8 53 10 67 1 15 13 40 25 57 29 39 39 141 18
174 -17 26 -10 118 12 173 7 18 12 78 11 150 0 131 15 266 32 277 13 8 497 11
530 3 24 -6 26 -11 32 -98 5 -70 3 -107 -9 -152 -14 -51 -15 -75 -5 -157 9
-83 9 -113 -6 -197 -18 -99 -15 -191 6 -191 6 0 8 -3 6 -7 -2 -5 -1 -37 4 -73
7 -58 6 -67 -12 -82 -23 -19 -41 -101 -32 -151 4 -26 12 -38 37 -48 30 -14 31
-15 30 -81 -2 -82 -7 -98 -35 -98 -13 0 -31 -8 -42 -17 -17 -16 -47 -18 -303
-18 -217 0 -287 3 -292 12 -10 17 -82 23 -264 26 -114 2 -148 5 -148 15 0 7 5
10 10 7 15 -9 35 16 37 45 2 24 1 25 -13 5 -8 -11 -23 -19 -32 -17 -14 3 -13
1 3 -12 16 -13 17 -15 3 -10 -10 3 -18 1 -18 -5 0 -6 -12 -16 -27 -24 -22 -10
-105 -12 -398 -10 -203 2 -379 4 -390 5 -39 2 -336 -22 -347 -28 -4 -3 -108
-7 -230 -10 -123 -2 -257 -6 -299 -9 -48 -2 -80 0 -87 7 -7 7 -16 8 -24 1 -7
-5 -22 -8 -33 -6 -63 9 -364 31 -445 33 -80 2 -163 6 -230 11 -8 0 -33 -2 -54
-7 -31 -6 -37 -4 -31 6 6 10 4 11 -6 4 -17 -10 -70 -14 -83 -6 -9 5 -69 6 -81
2 -6 -2 -37 -3 -90 -1 -24 1 -35 6 -35 16 0 8 -7 15 -15 15 -7 0 -18 6 -22 14
-4 7 -15 16 -23 20 -8 3 4 4 27 1 34 -4 41 -2 37 9 -3 8 -12 12 -20 9 -8 -3
-14 0 -14 6 0 6 4 11 10 11 5 0 9 10 7 21 -2 17 4 22 26 23 28 2 32 -6 28 -52
-2 -28 25 -40 46 -19 15 15 9 42 -7 32 -15 -9 -22 15 -9 31 6 8 14 12 17 10 2
-3 11 1 19 9 18 18 55 2 47 -19 -4 -11 0 -13 16 -9 13 3 19 11 16 19 -7 18 2
18 19 0 12 -12 21 -10 61 10 28 14 65 24 89 24 26 0 48 6 55 15 10 12 10 15 0
15 -7 0 -10 8 -7 20 3 11 1 18 -4 14 -5 -3 -9 -2 -9 3 0 11 -89 67 -113 70
-10 2 -32 11 -50 20 -18 10 -52 25 -77 33 -30 10 -46 21 -48 35 -2 11 -9 25
-16 30 -34 29 -87 106 -84 123 4 23 -97 164 -127 178 -24 11 -68 87 -71 123
-1 14 -24 85 -52 156 -48 125 -78 243 -70 282 3 14 20 20 88 29 95 14 299 17
401 8 l67 -7 52 -156 c61 -184 95 -239 236 -389 143 -152 235 -210 387 -243
51 -11 126 -27 167 -37 76 -17 313 -22 406 -9 90 13 283 66 334 92 116 59 208
149 333 326 56 80 74 120 87 197 8 50 38 215 39 218 1 1 7 1 14 1 6 -1 55 4
109 11 63 9 148 11 247 7 118 -4 151 -3 152 7 2 35 20 -57 25 -133z m2607 105
c13 -4 17 -17 17 -43 0 -20 0 -65 0 -100 0 -35 -3 -69 -8 -75 -21 -26 -32
-109 -30 -221 2 -105 -1 -128 -21 -182 -19 -50 -22 -73 -16 -110 4 -27 9 -83
11 -127 5 -69 3 -80 -14 -92 -11 -7 -25 -33 -31 -58 -13 -54 -15 -136 -2 -136
5 0 17 -7 25 -16 28 -27 4 -164 -28 -164 -8 0 -22 -8 -32 -17 -16 -16 -44 -18
-295 -18 l-277 0 -25 25 c-44 44 -42 171 3 185 13 4 25 24 35 57 18 62 19 95
2 128 -10 20 -9 39 4 105 9 45 24 95 33 113 12 23 16 58 15 139 0 84 5 123 21
173 13 40 23 103 26 165 3 55 12 137 21 183 18 90 15 87 98 96 59 6 448 -2
468 -10z m645 6 c96 6 418 -4 450 -14 22 -7 22 -10 22 -160 0 -169 8 -206 74
-334 19 -37 44 -89 55 -115 11 -27 45 -73 78 -105 56 -56 61 -58 148 -76 147
-30 170 -30 244 -6 59 19 70 26 85 58 10 19 20 57 23 84 6 47 5 48 -30 63 -20
8 -40 22 -45 30 -6 11 -32 18 -88 23 -97 9 -97 11 -54 139 19 58 30 111 30
147 0 35 9 80 26 123 14 38 23 76 21 85 -3 9 2 19 11 23 23 8 892 2 898 -6 2
-4 -3 -12 -12 -17 -12 -7 -19 -32 -25 -91 -4 -46 -14 -92 -22 -104 -28 -44
-39 -94 -47 -210 -7 -109 -10 -121 -41 -169 -25 -38 -34 -65 -37 -108 -4 -52
-2 -59 18 -70 16 -9 20 -18 16 -38 -3 -15 -7 -45 -8 -67 -2 -39 -28 -74 -55
-75 -16 0 -49 -59 -57 -102 -8 -46 8 -63 71 -73 59 -8 116 -31 109 -43 -3 -5
-1 -24 4 -43 25 -89 -15 -116 -178 -123 -53 -2 -134 -11 -178 -20 -45 -8 -154
-20 -243 -25 -198 -13 -362 -2 -573 38 -84 16 -182 32 -218 36 -82 9 -109 20
-138 53 -13 15 -20 20 -17 12 4 -8 -7 0 -25 18 -17 18 -42 40 -56 48 -28 19
-30 32 -8 48 14 11 13 16 -9 52 -14 21 -34 47 -44 57 -29 29 -132 107 -140
107 -24 0 -86 151 -77 186 8 30 -22 111 -53 145 -35 38 -44 84 -38 184 4 50 2
121 -4 158 -10 73 -4 139 24 235 10 32 20 51 25 46 5 -5 45 -7 88 -4z m2298
-51 c3 -6 0 -17 -7 -25 -18 -17 -44 -2 -36 20 7 18 33 21 43 5z m-14266 -484
c0 -27 -26 -40 -46 -24 -17 14 -18 46 -1 52 24 8 47 -5 47 -28z m23234 -218
c13 -21 -13 -51 -36 -42 -24 10 -29 32 -11 50 18 18 32 16 47 -8z m-20716
-219 c14 -19 -4 -58 -26 -58 -28 0 -41 21 -31 48 9 24 40 30 57 10z m6042
-192 c0 -3 -4 -8 -10 -11 -5 -3 -10 -1 -10 4 0 6 5 11 10 11 6 0 10 -2 10 -4z
m371 -89 c-10 -9 -11 -8 -5 6 3 10 9 15 12 12 3 -3 0 -11 -7 -18z m-3674 -84
c-4 -3 -3 -11 3 -18 13 -16 1 -52 -19 -58 -20 -5 -41 22 -41 53 0 12 5 17 14
14 8 -3 17 -1 21 5 3 6 11 11 17 11 6 0 8 -3 5 -7z m2922 -165 c27 0 54 3 60
7 6 3 20 1 32 -5 11 -6 28 -8 37 -4 30 12 96 13 111 1 9 -8 93 -12 265 -14
697 -8 1040 -13 1126 -17 52 -3 130 -7 172 -9 43 -2 81 -6 84 -10 4 -3 15 -2
26 4 10 5 24 6 31 2 6 -4 30 -9 52 -10 59 -3 105 -14 105 -25 0 -5 6 -6 13 -2
8 5 8 2 -2 -9 -12 -15 -11 -17 3 -17 10 0 16 9 16 25 0 14 3 25 6 25 12 0 33
-28 26 -36 -4 -5 1 -2 11 5 14 11 17 11 17 0 0 -8 5 -6 13 6 9 11 19 15 27 10
9 -6 12 -4 8 6 -4 11 1 15 18 15 13 0 24 -5 24 -10 0 -7 3 -7 8 0 9 14 61 24
68 13 3 -5 17 -7 32 -4 16 3 34 -2 46 -13 11 -9 16 -12 13 -6 -11 18 34 25 64
10 23 -12 27 -12 22 0 -3 8 1 14 11 14 9 0 16 -4 16 -10 0 -5 7 -6 17 -3 12 5
14 3 8 -8 -7 -12 -6 -12 7 -1 16 13 135 15 153 2 19 -13 45 -19 45 -10 0 5
-10 10 -22 13 -13 2 15 4 62 4 47 0 93 -5 104 -10 13 -6 16 -6 12 2 -4 6 -1
11 8 11 8 0 16 -5 18 -11 2 -7 12 -7 32 1 30 11 50 5 27 -9 -8 -6 4 -8 32 -7
25 1 43 -2 41 -6 -3 -5 2 -8 11 -8 9 0 13 5 10 10 -3 6 -1 10 4 10 15 0 14
-13 -1 -29 -11 -10 -9 -11 7 -5 11 4 24 12 28 18 5 6 6 0 2 -14 -5 -24 -5 -24
7 -5 7 11 20 21 28 23 12 3 13 1 3 -9 -21 -21 -16 -24 46 -24 33 0 57 -3 54
-8 -3 -5 -11 -6 -19 -3 -17 7 -18 -6 -1 -23 10 -12 8 -13 -8 -7 -20 6 -20 6
-1 -9 11 -8 14 -15 7 -15 -7 0 -10 -4 -7 -9 9 -14 -73 -16 -804 -19 -371 -2
-702 -5 -735 -7 -33 -3 -127 -7 -210 -10 -82 -3 -167 -11 -188 -17 -32 -10
-40 -9 -47 3 -8 12 -13 12 -31 1 -11 -7 -51 -15 -88 -18 -36 -2 -74 -7 -83
-10 -10 -3 -28 1 -40 8 -29 16 -39 17 -61 5 -11 -5 -23 -4 -31 2 -9 8 -30 8
-70 0 -32 -6 -64 -8 -71 -5 -7 2 -18 -1 -25 -7 -10 -9 -11 -9 -6 1 6 10 -4 12
-48 8 -37 -4 -56 -2 -56 5 0 12 -58 3 -77 -13 -7 -5 -22 -6 -35 -2 -29 9 -58
12 -58 6 0 -13 35 -42 49 -41 12 0 11 3 -4 9 -20 9 -20 9 1 9 11 1 24 -3 30
-8 12 -12 96 -17 112 -7 7 4 18 4 25 -1 6 -4 35 -8 62 -9 94 -2 160 -3 195 -2
19 1 55 -2 80 -5 25 -3 63 -1 84 4 27 7 41 7 45 0 4 -5 22 -8 41 -6 19 3 46
-2 62 -9 16 -9 30 -11 34 -5 3 5 9 7 13 5 4 -3 54 -6 109 -7 56 -2 102 -6 102
-9 0 -4 57 -8 127 -9 69 -1 129 -3 132 -5 10 -6 272 -16 566 -21 376 -6 730
-15 795 -20 165 -12 575 -18 1225 -17 615 1 756 -1 897 -15 136 -14 165 -19
156 -30 -11 -14 -3 -17 37 -14 17 2 17 0 5 -8 -12 -9 -10 -11 10 -12 14 -1 30
-2 36 -2 21 0 10 -28 -14 -34 -18 -4 -20 -8 -10 -14 7 -5 11 -9 8 -10 -21 -6
-192 -22 -247 -23 -24 -1 -43 -3 -43 -6 0 -6 -50 -7 -572 -12 -236 -3 -428 -1
-428 3 0 3 -42 5 -92 2 -186 -8 -384 -8 -411 0 -16 4 -26 4 -23 -1 3 -4 -34
-9 -81 -11 -48 -1 -94 -6 -104 -12 -10 -5 -22 -9 -26 -8 -23 4 -42 -3 -47 -17
-4 -12 -1 -14 14 -9 10 3 29 1 40 -5 16 -9 25 -8 36 1 10 8 18 9 22 3 4 -6 50
-12 102 -13 52 -1 97 -4 100 -6 3 -2 264 -6 580 -9 316 -4 618 -8 670 -11 52
-2 293 -7 535 -10 552 -7 989 -16 994 -21 2 -2 -70 -4 -160 -5 -183 0 -252
-13 -129 -22 189 -16 1791 -28 1943 -16 44 4 84 12 90 18 15 15 36 14 54 -5
13 -13 35 -15 119 -12 56 1 105 6 109 10 3 3 0 16 -7 28 -10 18 -10 24 0 27
13 5 17 33 3 33 -4 0 -20 11 -35 25 -20 19 -32 23 -44 16 -11 -6 -19 -5 -27 5
-8 11 -18 12 -44 4 -27 -8 -38 -6 -51 5 -21 19 -34 19 -49 1 -8 -10 -27 -12
-64 -9 -29 2 -58 5 -64 5 -7 1 -13 7 -13 14 0 10 -6 11 -26 4 -20 -8 -25 -7
-21 2 2 7 -3 19 -12 26 -9 8 -11 11 -5 8 12 -6 47 29 58 58 5 15 9 16 21 6 10
-9 15 -9 15 -1 0 6 5 11 11 11 5 0 8 -4 4 -9 -8 -14 45 -3 82 16 26 14 40 15
71 7 33 -9 41 -8 50 5 10 14 12 13 18 -6 8 -27 5 -27 51 -8 48 20 87 20 79 0
-4 -12 0 -14 20 -11 24 5 25 3 20 -22 -6 -24 -5 -25 7 -10 9 11 21 15 37 11
16 -4 21 -3 16 5 -4 6 5 19 19 28 24 16 27 16 45 -1 15 -13 20 -14 20 -5 0 9
5 7 15 -6 8 -10 15 -13 15 -7 0 7 11 12 25 11 20 -2 24 -7 20 -28 -2 -14 0
-32 5 -40 8 -12 10 -10 10 8 0 14 4 20 10 17 6 -4 17 -2 25 5 11 9 12 7 8 -12
-3 -13 -2 -20 2 -15 5 4 15 -5 22 -20 l13 -28 -5 36 c-5 35 -4 37 25 41 20 3
30 0 30 -9 0 -7 -4 -13 -9 -13 -5 0 -11 -8 -14 -19 -3 -14 0 -17 14 -14 15 4
18 1 13 -11 -6 -16 -15 -18 -81 -18 -18 0 -33 -5 -33 -11 0 -6 -7 -2 -15 9
-14 19 -14 19 -30 -4 -9 -12 -21 -20 -26 -17 -5 4 -9 -2 -9 -12 0 -15 -2 -15
-9 -4 -8 12 -11 9 -17 -13 -4 -18 -2 -31 6 -36 9 -6 8 -13 -4 -33 -12 -18 -14
-27 -6 -32 6 -4 62 -9 123 -11 161 -6 257 -12 295 -20 27 -5 30 -9 20 -21 -9
-11 -9 -17 3 -24 12 -8 11 -11 -3 -20 -10 -5 -18 -15 -18 -20 0 -6 -12 -24
-27 -40 -29 -30 -85 -40 -99 -18 -4 8 -9 8 -17 0 -6 -6 -23 -11 -38 -11 -15 0
-30 -4 -33 -8 -4 -8 -60 -15 -91 -13 -29 2 -163 3 -255 1 -58 -2 -117 1 -131
4 -18 5 -30 2 -39 -8 -11 -15 -14 -15 -26 1 -10 14 -17 16 -31 7 -22 -14 -186
-9 -243 6 -22 6 -54 10 -72 10 -18 -1 -132 2 -253 7 -121 4 -398 7 -615 7
-615 -2 -1824 -14 -1940 -19 -133 -6 -460 -13 -900 -19 -622 -10 -903 -17
-1070 -26 -91 -5 -244 -12 -340 -15 -259 -9 -428 -22 -445 -35 -5 -4 -18 -4
-29 -1 -19 7 -90 -7 -115 -23 -10 -7 -12 -6 -6 4 6 10 3 12 -13 8 -12 -3 -22
-2 -24 2 -2 5 -12 2 -23 -6 -19 -14 -19 -15 5 -37 22 -19 37 -22 125 -24 55
-1 138 -7 185 -13 47 -7 121 -13 165 -15 356 -13 544 -26 551 -36 3 -5 -4 -9
-16 -9 -12 0 -28 -7 -36 -15 -9 -8 -25 -16 -37 -16 -12 -1 -36 -2 -52 -3 -17
-1 -35 -5 -41 -9 -6 -3 -35 -7 -65 -8 -30 -1 -58 -4 -63 -7 -6 -3 -53 -7 -105
-8 -128 -4 -406 -24 -456 -33 -25 -5 -47 -4 -57 3 -13 7 -22 6 -35 -6 -18 -16
-45 -18 -76 -4 -9 5 -39 5 -65 0 -26 -4 -54 -7 -62 -7 -8 1 -55 5 -105 8 -49
4 -92 7 -95 8 -3 1 -16 -5 -29 -12 -15 -8 -38 -11 -62 -7 -24 4 -39 2 -39 -4
0 -7 -26 -9 -72 -6 -40 3 -75 1 -78 -3 -3 -5 -25 -5 -50 -2 -25 4 -67 3 -95
-1 -27 -5 -63 -5 -80 -1 -16 3 -46 7 -65 8 -19 0 -41 4 -47 8 -7 4 -21 4 -30
-1 -10 -5 -38 -10 -61 -11 -24 0 -48 -4 -53 -7 -5 -3 -26 -8 -46 -10 -20 -3
-41 -8 -47 -11 -18 -12 -37 -12 -64 -2 -41 16 -158 23 -166 10 -5 -7 -13 -8
-25 -1 -10 5 -21 7 -24 3 -4 -3 -14 0 -22 7 -13 10 -24 11 -57 1 -24 -8 -43
-9 -47 -3 -8 12 -112 9 -137 -5 -13 -8 -34 -9 -60 -3 -21 4 -85 8 -141 8 -55
0 -106 3 -111 6 -6 3 -13 2 -16 -3 -6 -10 -52 -9 -62 1 -3 4 -17 0 -31 -7 -16
-8 -43 -11 -72 -8 -25 3 -50 5 -56 5 -80 -3 -255 4 -255 10 0 4 -12 1 -26 -7
-18 -9 -34 -11 -50 -4 -15 5 -24 5 -24 -1 0 -5 -6 -7 -13 -4 -8 3 -25 1 -38
-5 -15 -5 -32 -5 -41 0 -11 6 -20 4 -28 -6 -9 -11 -16 -12 -25 -5 -7 6 -29 7
-56 2 -24 -5 -55 -6 -69 -2 -14 3 -35 5 -47 4 -13 -1 -23 2 -23 7 0 5 -7 6
-16 2 -8 -3 -27 1 -41 8 -20 11 -27 11 -30 2 -5 -15 -94 -6 -105 10 -4 7 -12
6 -23 -3 -14 -12 -18 -12 -25 0 -7 11 -14 12 -32 3 -71 -33 -98 -35 -98 -7 0
22 -20 16 -30 -8 -5 -13 -9 -18 -9 -11 -1 14 -88 8 -108 -8 -9 -8 -14 -7 -19
4 -6 16 -14 18 -122 18 -38 -1 -61 3 -57 9 8 13 -16 13 -48 1 -20 -8 -27 -6
-31 5 -4 11 -15 13 -40 9 -60 -12 -136 -11 -136 1 0 22 -102 29 -508 33 -149
2 -288 7 -307 11 -19 4 -37 4 -40 0 -3 -4 -64 -7 -135 -5 -76 1 -133 -2 -137
-8 -3 -5 -8 -5 -12 2 -4 6 -65 12 -156 15 -105 4 -151 9 -157 18 -6 10 -8 10
-8 1 0 -7 -7 -13 -15 -13 -14 0 -20 13 -15 35 1 5 -7 2 -17 -6 -31 -27 -47
-34 -41 -18 5 12 -4 15 -43 15 -27 0 -49 -3 -49 -7 0 -15 -32 -18 -73 -5 -23
7 -52 10 -62 6 -11 -4 -26 -3 -33 3 -10 8 -16 7 -22 -2 -4 -8 -13 -10 -19 -7
-6 4 -11 4 -11 -1 0 -4 -47 -8 -105 -9 -89 0 -105 2 -105 15 0 9 -5 23 -11 31
-8 12 -9 10 -4 -7 7 -27 -11 -40 -20 -14 -4 12 -12 18 -21 14 -10 -4 -12 0 -7
13 4 12 3 15 -5 10 -7 -4 -12 -1 -12 7 0 9 10 15 23 15 12 1 40 2 63 3 22 1
45 -1 52 -5 6 -4 21 -2 32 4 26 14 212 12 203 -3 -4 -6 -1 -7 7 -2 8 5 59 10
115 11 278 6 561 17 569 21 4 3 47 6 95 7 47 1 92 5 99 9 7 5 12 4 12 -2 0
-13 42 -14 56 -2 8 8 62 16 74 11 16 -7 70 -6 70 1 0 5 8 9 18 9 10 0 24 6 31
13 11 10 13 10 7 0 -8 -14 10 -18 18 -4 8 12 58 11 74 -2 10 -8 16 -7 21 1 4
6 20 11 36 11 87 -1 107 1 119 10 8 7 15 4 24 -10 14 -23 52 -26 52 -4 0 13
-4 14 -20 5 -17 -9 -20 -8 -20 12 0 22 -4 24 -55 23 -30 0 -55 -4 -55 -10 0
-5 -20 -11 -45 -12 -26 -1 -45 2 -45 9 0 5 7 7 16 4 9 -3 12 -2 9 4 -7 11 -42
9 -62 -3 -6 -4 -13 -3 -15 2 -1 5 -21 11 -43 13 -22 2 -46 7 -53 12 -6 4 -33
6 -59 5 -48 -2 -268 9 -333 16 -28 3 -569 18 -605 16 -96 -3 -175 1 -175 11 0
5 -9 4 -19 -2 -18 -9 -176 -7 -311 5 -25 2 -142 5 -261 7 -211 2 -216 1 -254
-22 -32 -20 -51 -24 -114 -23 -42 0 -102 8 -135 18 -48 14 -82 16 -197 11 -76
-3 -139 -2 -139 2 0 4 -30 6 -67 5 -145 -3 -282 -11 -291 -17 -26 -16 -134 -5
-141 15 -2 6 -10 1 -19 -12 l-15 -22 -17 23 -18 23 -12 -22 c-11 -21 -12 -22
-25 -5 -12 16 -16 17 -39 5 -22 -12 -30 -12 -53 0 -20 11 -27 11 -30 2 -3 -9
-10 -10 -23 -3 -13 7 -20 6 -22 -2 -3 -7 -15 -4 -34 11 -27 20 -45 23 -150 26
-76 2 -120 7 -122 14 -3 8 -8 9 -16 2 -9 -7 -45 -5 -117 5 -117 18 -113 18
-264 14 -60 -2 -171 0 -246 5 -132 7 -527 16 -641 15 -31 -1 -59 4 -63 10 -4
7 -12 7 -25 0 -10 -5 -20 -6 -22 -1 -2 7 -94 15 -288 24 -29 2 -37 -3 -48 -26
-8 -16 -23 -32 -35 -37 -21 -8 -56 -21 -67 -25 -3 -1 -12 -5 -21 -9 -21 -9
-117 22 -138 44 -9 9 -24 31 -33 48 -11 22 -25 32 -40 32 -13 0 -61 0 -108 0
-69 0 -80 2 -60 11 14 6 40 9 58 7 17 -2 32 -1 32 3 0 5 24 10 53 12 28 2 -10
5 -85 6 -76 2 -142 5 -148 6 -5 1 -47 3 -92 4 -148 2 -76 10 152 17 124 3 254
10 290 16 36 6 76 9 90 8 170 -13 1588 0 1630 16 13 4 13 6 0 14 -8 6 -26 10
-39 10 -13 0 -22 3 -18 6 9 9 126 14 474 18 177 2 327 7 332 11 6 3 114 7 241
8 126 1 230 5 230 8 0 3 23 4 50 3 28 -1 53 3 57 9 3 5 1 7 -5 3 -5 -3 -12 -1
-14 4 -2 6 -19 12 -38 13 -19 2 -43 7 -53 13 -20 12 -64 7 -73 -7 -9 -15 -22
-10 -29 12 -5 14 -12 18 -23 13 -10 -4 -27 -6 -40 -5 -13 0 -20 -3 -17 -9 4
-6 -2 -7 -17 -1 -14 5 -31 5 -40 0 -11 -6 -18 -4 -22 6 -6 16 -46 21 -46 7 0
-10 -165 -6 -182 4 -16 10 -96 25 -130 25 -14 0 -32 6 -38 14 -7 8 -17 12 -23
8 -18 -11 -47 -11 -47 0 0 5 -7 4 -15 -3 -8 -7 -22 -10 -30 -6 -8 3 -15 1 -15
-3 0 -5 -11 -4 -25 2 -16 8 -23 18 -19 29 6 20 -14 34 -29 19 -6 -6 -23 -11
-38 -11 -15 0 -30 -4 -34 -9 -3 -6 3 -8 15 -6 11 2 23 -1 26 -7 4 -7 2 -8 -4
-4 -7 4 -12 1 -13 -6 0 -10 -2 -10 -6 0 -2 6 -9 10 -14 6 -5 -3 -16 2 -24 10
-9 8 -23 12 -32 9 -11 -4 -14 -3 -9 5 4 8 18 10 34 6 27 -7 27 -7 8 15 -11 11
-14 21 -8 21 7 0 12 -4 12 -10 0 -5 9 -10 19 -10 11 0 23 5 26 10 3 6 -1 10
-9 10 -9 0 -16 7 -16 15 0 19 24 19 42 1 26 -26 56 -29 70 -7 7 12 19 21 27
21 11 0 11 -3 1 -15 -12 -14 -7 -20 14 -16 5 1 12 -2 15 -8 9 -13 62 -1 68 17
4 8 -1 19 -10 24 -29 16 -19 27 15 17 18 -5 42 -6 53 -3 14 4 16 3 7 -4 -11
-7 -10 -10 3 -16 27 -10 45 -7 45 8 0 16 21 26 56 26 16 0 24 -6 24 -17 1 -17
1 -17 10 -1 12 20 75 26 375 33 121 3 238 7 260 10 71 10 628 10 1050 0 226
-5 496 -9 600 -9 324 1 836 22 1158 48 40 3 102 8 139 11 38 2 78 10 90 16 16
8 23 9 26 1 2 -6 9 -9 15 -7 7 2 30 7 52 9 22 3 56 8 75 11 19 3 53 7 75 9 22
3 51 9 65 14 21 8 22 11 8 17 -9 3 -23 8 -32 9 -8 1 -19 5 -22 9 -4 4 -25 7
-46 7 -21 0 -38 4 -38 8 0 4 -8 8 -17 9 -10 1 -34 4 -53 6 -19 2 -41 -1 -48
-7 -10 -7 -16 -6 -22 3 -5 9 -10 10 -14 2 -5 -7 -15 -7 -34 1 -33 13 -92 17
-352 23 -195 4 -267 9 -278 20 -3 3 3 15 14 27 17 19 17 21 2 15 -10 -4 -18
-2 -18 2 0 5 7 11 15 15 8 3 15 10 15 16 0 6 -4 9 -9 6 -5 -3 -11 1 -15 9 -3
8 0 17 6 21 6 4 8 3 5 -3 -4 -6 3 -10 17 -10 21 0 23 2 16 22 -12 31 8 46 57
44 21 0 76 2 123 6 47 3 247 8 445 9 198 2 367 6 375 9 41 14 71 17 65 6 -5
-8 -1 -9 16 -4 13 5 37 7 54 5 32 -2 966 -5 1075 -2 118 2 125 3 134 12 6 6
18 8 28 4 9 -3 40 -5 67 -6z m-5738 -13 c19 -8 30 -15 24 -15 -5 0 2 -8 18
-16 16 -8 27 -23 27 -35 0 -11 -4 -18 -8 -15 -4 2 -14 1 -22 -5 -13 -8 -13 -9
0 -9 10 0 11 -3 3 -11 -6 -6 -9 -17 -6 -24 2 -8 -5 -19 -17 -25 -13 -7 -20 -8
-16 -2 11 19 -28 24 -41 6 -10 -14 -16 -15 -25 -6 -7 7 -23 12 -37 12 -19 0
-22 3 -12 9 24 15 5 59 -27 64 -24 4 -25 5 -7 11 11 4 31 23 45 41 28 38 50
43 101 20z m1579 -20 c96 -3 186 -8 200 -10 14 -2 53 -6 86 -10 52 -6 63 -10
73 -31 6 -13 14 -24 19 -24 13 0 6 -51 -9 -62 -11 -8 -10 -9 4 -4 9 3 23 9 31
12 8 3 16 -3 19 -15 4 -16 0 -21 -16 -23 -21 -1 -30 -3 -52 -8 -70 -19 -463
-35 -835 -34 -348 0 -442 5 -463 23 -12 9 -16 9 -19 -1 -4 -9 -25 -12 -78 -11
-74 3 -94 8 -73 21 7 5 9 13 4 21 -7 11 -11 10 -20 -5 -10 -18 -10 -18 -11 -1
0 11 -5 16 -12 12 -7 -4 -5 0 5 8 15 13 16 15 2 21 -20 7 -19 23 3 35 15 8 18
6 18 -12 -1 -12 4 -22 11 -22 7 0 18 -6 25 -12 9 -10 9 -13 -2 -13 -7 0 -11
-2 -8 -5 10 -10 38 7 31 19 -5 8 -3 8 8 0 8 -6 25 -8 39 -3 24 7 24 7 2 8 -19
1 -21 4 -12 20 13 26 13 34 -2 25 -8 -4 -10 -3 -5 2 5 5 12 9 15 9 15 0 32 17
27 26 -4 5 12 9 34 9 22 0 42 4 45 8 3 5 33 10 67 11 35 1 67 4 71 7 5 3 106
8 226 11 119 3 218 6 219 7 3 2 152 -2 333 -9z m9482 -21 c67 -6 77 -9 87 -31
7 -14 16 -21 23 -17 7 4 8 3 4 -4 -4 -7 -16 -12 -27 -12 -10 0 -19 -4 -19 -10
0 -5 9 -10 20 -10 11 0 20 -7 20 -15 0 -8 -6 -15 -13 -15 -7 0 -17 -10 -22
-22 -18 -40 -110 -42 -1083 -23 -61 1 -108 7 -115 14 -12 12 -1 15 37 11 10
-1 15 3 12 8 -4 6 9 9 31 7 21 -1 30 -1 20 2 -9 2 -15 9 -12 14 3 5 -1 6 -9 3
-10 -4 -16 -1 -17 7 0 8 -2 22 -4 31 -2 10 1 20 6 24 5 3 9 0 9 -5 0 -6 22
-10 51 -9 31 0 46 4 38 9 -14 8 -5 24 14 24 7 1 11 5 10 11 -1 5 60 10 150 12
84 2 154 6 157 8 6 7 538 -3 632 -12z m-10696 -138 c-31 -10 -36 -14 -22 -19
26 -10 56 -8 56 3 0 6 5 10 10 10 6 0 10 -7 10 -15 0 -19 -70 -21 -88 -3 -22
22 -12 33 31 35 l42 1 -39 -12z m2849 -6 c-3 -5 -10 -10 -16 -10 -5 0 -9 5 -9
10 0 6 7 10 16 10 8 0 12 -4 9 -10z m14613 -191 c8 -13 9 -19 1 -19 -5 0 -8
-4 -5 -9 3 -5 -6 -12 -21 -16 -28 -7 -47 9 -38 33 3 8 5 17 5 22 0 16 47 7 58
-11z m-17928 -59 c0 -5 -5 -10 -11 -10 -5 0 -7 5 -4 10 3 6 8 10 11 10 2 0 4
-4 4 -10z m14100 -29 c0 -5 -7 -12 -16 -15 -14 -5 -15 -4 -4 9 14 17 20 19 20
6z m393 -8 c-7 -17 -20 -17 -26 1 -4 10 0 14 12 13 11 -1 17 -7 14 -14z
m-14693 -37 c0 -2 -8 -10 -17 -17 -16 -13 -17 -12 -4 4 13 16 21 21 21 13z
m164 -31 c-4 -8 -11 -15 -16 -15 -6 0 -5 6 2 15 7 8 14 15 16 15 2 0 1 -7 -2
-15z m15167 -308 c-13 -13 -26 -3 -16 12 3 6 11 8 17 5 6 -4 6 -10 -1 -17z
m-15041 -137 c0 -5 -2 -10 -4 -10 -3 0 -8 5 -11 10 -3 6 -1 10 4 10 6 0 11 -4
11 -10z m15491 -29 c13 -2 16 -61 3 -61 -7 0 -15 -6 -18 -12 -5 -10 -7 -10
-12 -1 -3 7 -12 9 -20 6 -9 -3 -14 2 -14 16 0 12 -5 21 -11 21 -6 0 -1 8 12
19 13 10 30 17 39 16 8 -2 18 -4 21 -4z m-16255 -82 c10 0 14 -3 7 -5 -17 -7
2 -54 30 -76 l21 -16 -24 -21 c-16 -13 -38 -20 -60 -19 -19 0 -39 0 -45 -2
-41 -10 -75 33 -41 52 11 6 15 16 11 29 -4 12 -1 21 9 25 8 3 12 12 10 19 -3
7 4 16 15 20 12 3 21 12 21 18 0 7 7 4 14 -5 7 -10 22 -18 32 -19z m1025 -60
c4 -7 12 -5 21 5 9 8 18 13 21 10 3 -3 36 -6 74 -6 37 0 77 -5 88 -11 13 -7
20 -7 23 1 1 5 12 8 23 5 10 -3 25 0 33 6 16 13 106 3 106 -12 0 -5 7 -4 15 3
9 8 27 10 47 6 33 -7 310 -14 585 -15 89 0 144 -5 148 -11 5 -8 11 -7 21 1 20
17 31 2 16 -21 -7 -12 -8 -20 -2 -20 14 0 13 -27 -2 -36 -6 -4 -8 -3 -5 3 4 6
0 14 -8 17 -9 3 -18 -1 -21 -9 -7 -18 -95 -21 -126 -4 -13 7 -23 8 -27 1 -8
-13 -133 -32 -146 -23 -9 6 -31 7 -37 1 -2 -1 -66 -3 -143 -5 -77 -2 -155 -7
-174 -10 -19 -4 -91 -8 -160 -11 -205 -7 -251 -5 -251 9 0 6 -5 5 -13 -2 -10
-8 -17 -7 -25 1 -8 8 -15 8 -25 0 -10 -9 -19 -8 -35 4 -20 13 -23 13 -28 0 -4
-11 -24 -15 -86 -15 -44 0 -85 2 -90 5 -5 4 -42 6 -81 5 -143 -2 -166 0 -199
13 -26 11 -33 20 -33 40 2 39 23 56 69 56 23 0 56 4 74 9 20 6 43 6 57 1 19
-7 27 -5 34 8 6 9 11 12 11 6 0 -15 60 -16 60 -1 0 8 3 8 11 0 8 -8 20 -7 46
3 19 8 43 12 54 9 10 -4 19 -2 19 4 0 13 51 -5 61 -20z m8933 -18 c3 -4 -6
-13 -21 -20 -21 -10 -25 -9 -20 3 4 9 -1 17 -11 19 -9 3 -3 5 15 6 17 0 34 -3
37 -8z m-7354 -10 c0 -5 -7 -12 -16 -15 -14 -5 -15 -4 -4 9 14 17 20 19 20 6z
m49 -4 c13 4 13 2 -2 -7 -19 -12 -37 -6 -37 13 0 8 3 8 11 0 6 -6 19 -9 28 -6z
m11591 -6 c0 -6 -4 -13 -10 -16 -15 -9 -12 -25 5 -25 8 0 15 4 15 9 0 20 89
35 124 21 12 -5 15 -9 7 -9 -11 -1 -11 -4 -1 -16 7 -9 10 -18 6 -22 -3 -4 -13
2 -21 13 -10 13 -14 15 -15 5 0 -12 -3 -11 -17 1 -22 19 -43 13 -43 -13 0 -10
-5 -19 -11 -19 -5 0 -7 5 -4 10 4 6 -7 10 -25 10 -17 0 -29 -4 -26 -9 4 -5 -3
-7 -14 -4 -11 3 -20 12 -20 19 0 8 -5 14 -11 14 -20 0 -3 24 22 31 35 10 39
10 39 0z m-131 -7 c25 -5 29 -9 20 -20 -6 -8 -16 -11 -22 -7 -6 4 -7 1 -2 -7
5 -9 2 -10 -14 -5 -21 6 -30 -9 -11 -18 6 -3 5 -4 -2 -3 -13 3 -20 66 -7 66 3
0 21 -3 38 -6z m721 -19 c0 -18 -26 -20 -36 -3 -4 6 -3 8 4 4 6 -3 13 -2 17 4
9 14 15 12 15 -5z m194 -3 c2 -4 -4 -9 -15 -9 -11 -1 -17 2 -14 8 7 11 22 12
29 1z m316 -17 c0 -8 -9 -15 -20 -15 -20 0 -26 11 -13 23 12 13 33 7 33 -8z
m-1175 -17 c4 4 6 0 3 -8 -3 -8 -14 -13 -24 -12 -25 5 -27 8 -19 22 5 8 11 8
19 1 7 -6 16 -7 21 -3z m-12965 -58 c0 -5 -5 -10 -11 -10 -5 0 -7 5 -4 10 3 6
8 10 11 10 2 0 4 -4 4 -10z m16656 -108 c3 -15 10 -35 15 -46 7 -13 7 -22 0
-29 -6 -6 -11 -21 -11 -34 0 -26 0 -26 -71 -28 l-51 -1 5 33 c4 24 1 35 -11
42 -13 7 -14 12 -4 23 6 8 8 19 4 23 -4 5 1 5 11 2 15 -6 17 -2 15 21 -2 21 1
27 15 26 9 -1 17 2 17 7 0 4 14 3 30 -3 20 -7 32 -19 36 -36z m-12356 -72 c0
-3 23 -7 52 -9 29 -1 57 -6 63 -11 6 -5 17 -5 24 0 8 4 20 6 27 3 6 -2 15 0
19 6 9 15 42 14 49 -1 3 -9 8 -8 16 5 6 9 16 17 21 17 6 0 7 -5 3 -11 -4 -8
-1 -8 13 -1 10 6 25 7 32 3 7 -5 31 -7 54 -5 22 1 48 -1 58 -6 12 -7 19 -5 23
5 7 20 26 19 42 -2 12 -17 14 -17 27 2 13 17 18 18 42 7 39 -18 186 -28 325
-21 8 0 28 -2 44 -6 15 -3 33 -2 40 3 12 9 180 7 296 -3 113 -10 171 -12 175
-5 5 8 228 4 272 -4 17 -3 34 -2 37 3 3 4 47 7 98 6 90 -2 93 -3 97 -26 3 -21
4 -21 10 -6 7 18 13 19 186 28 6 0 26 -4 45 -9 20 -5 44 -6 55 -2 25 9 86 -5
96 -22 7 -10 9 -9 9 5 0 18 10 20 135 21 33 1 68 -3 78 -7 10 -5 24 -5 30 0 7
5 26 8 42 7 17 -2 45 4 63 12 18 8 37 12 42 9 18 -11 144 -8 173 4 37 15 47
14 47 -3 0 -12 20 -15 105 -14 57 0 110 -4 117 -8 7 -5 42 -10 78 -11 105 -4
113 -7 115 -48 1 -25 -21 -43 -27 -23 -3 8 -10 8 -24 -1 -16 -11 -16 -12 -1
-7 11 4 16 2 12 -5 -4 -6 -19 -9 -33 -8 -15 2 -32 0 -39 -4 -6 -4 -14 -3 -17
2 -4 5 -21 5 -43 1 -21 -5 -42 -5 -48 0 -5 4 -23 6 -40 5 -16 -2 -57 0 -90 4
-43 6 -71 5 -100 -5 -30 -10 -79 -12 -180 -9 -77 3 -184 5 -237 6 -56 0 -98 4
-98 10 0 5 -14 2 -32 -7 -20 -10 -33 -13 -36 -6 -1 5 -12 7 -24 5 -11 -4 -24
0 -29 8 -5 8 -9 9 -9 3 0 -13 -87 -16 -95 -4 -3 5 -20 4 -38 -1 -51 -14 -67
-11 -67 12 0 17 -5 20 -25 17 -16 -4 -25 0 -28 11 -3 9 -5 0 -6 -20 -1 -37 -1
-37 -35 -29 -19 4 -38 5 -41 2 -9 -10 -304 -12 -310 -2 -6 9 -380 4 -396 -5
-4 -3 -10 -1 -13 4 -3 5 -21 5 -41 1 -20 -4 -93 -9 -162 -9 -70 -1 -132 -5
-137 -10 -6 -5 -20 -7 -31 -5 -11 2 -69 6 -130 8 -60 3 -110 6 -110 7 0 5 -92
4 -100 -1 -16 -11 -55 -19 -55 -10 0 4 -12 5 -27 3 -62 -8 -116 -3 -134 13
-18 16 -24 12 -20 -10 1 -5 -7 -6 -19 -3 -11 3 -20 1 -20 -5 0 -5 -6 -6 -12
-1 -15 9 -106 13 -328 14 -182 1 -260 4 -260 11 0 4 -12 3 -27 -3 -31 -13
-272 -18 -279 -7 -3 4 -16 3 -29 -2 -14 -5 -25 -6 -25 -2 0 4 -37 8 -83 10
-45 2 -84 8 -85 13 -3 6 -9 6 -17 -1 -10 -8 -20 -8 -36 1 -18 9 -24 9 -27 -1
-3 -9 -6 -9 -13 1 -8 12 -11 11 -19 -1 -8 -13 -11 -12 -24 5 -14 18 -15 18
-16 3 0 -10 -8 -18 -17 -18 -13 0 -14 3 -5 12 19 19 14 28 -13 28 -18 0 -25
-5 -25 -20 0 -11 -7 -20 -15 -20 -8 0 -15 4 -15 10 0 11 -68 9 -87 -3 -7 -4
-14 1 -18 13 -5 16 -10 18 -25 10 -15 -8 -17 -6 -13 10 6 23 31 26 58 6 16
-11 21 -11 32 0 7 7 13 16 13 21 0 4 11 13 25 20 23 10 27 8 41 -15 8 -15 13
-19 10 -10 -6 21 -2 23 47 32 30 6 37 4 37 -9 0 -17 16 -21 22 -4 5 14 68 18
69 5 0 -6 3 -5 6 2 3 8 27 12 71 12 37 0 87 6 112 14 25 7 54 10 64 6 11 -3
40 -3 65 2 90 17 136 18 167 3 36 -17 179 -14 196 3 8 8 15 6 24 -6 12 -16 14
-16 28 3 14 18 15 18 16 3 0 -10 7 -18 15 -18 8 0 15 8 16 18 0 10 3 12 6 5 3
-9 10 -10 24 -3 13 7 19 7 19 0 0 -15 36 -12 49 3 11 14 41 19 41 7z m-1304
-77 c-9 -9 -57 7 -51 17 3 6 11 10 16 10 6 0 7 -4 4 -10 -3 -5 -1 -10 5 -10 6
0 14 8 18 18 6 16 7 16 10 -1 2 -10 1 -21 -2 -24z m120 10 c-10 -10 -19 5 -10
18 6 11 8 11 12 0 2 -7 1 -15 -2 -18z m4669 -6 c1 -20 -2 -24 -12 -15 -10 8
-12 7 -7 -6 4 -11 1 -16 -11 -16 -11 0 -15 5 -11 15 4 10 -1 15 -14 15 -11 0
-20 7 -20 15 0 18 17 20 22 3 3 -8 9 -6 19 5 19 22 34 16 34 -16z m-8226 8 c7
-3 19 -1 26 5 16 14 66 9 83 -7 10 -10 18 -9 37 3 17 11 34 14 52 9 49 -13 86
-15 97 -6 6 5 25 7 41 5 17 -2 49 -4 73 -5 23 -1 42 -4 42 -8 0 -13 61 -10 66
4 4 10 22 13 77 9 40 -3 89 -5 110 -5 l38 1 -21 -31 c-17 -23 -25 -27 -36 -18
-11 9 -19 5 -39 -19 -25 -29 -29 -31 -83 -25 -31 3 -59 8 -62 12 -3 3 -14 6
-25 6 -11 0 -19 5 -18 11 1 6 -12 11 -28 11 -24 0 -29 -4 -26 -18 3 -11 -2
-19 -15 -22 -15 -4 -18 -1 -13 14 8 24 -4 25 -20 2 -11 -15 -15 -15 -30 -3
-15 12 -18 12 -26 -3 -12 -21 -48 -22 -55 -2 -5 12 -9 12 -31 -2 -13 -9 -48
-18 -76 -19 -29 -2 -70 -5 -92 -7 -22 -2 -51 -2 -66 0 -31 6 -95 61 -103 89
-6 18 -3 21 19 19 14 -2 27 1 30 5 5 8 44 5 74 -5z m8362 -22 c-10 -17 -10
-16 -11 3 0 23 13 41 18 25 2 -6 -1 -18 -7 -28z m5942 5 c31 -9 39 -18 48 -49
13 -43 7 -66 -18 -76 -10 -4 -29 -19 -43 -33 -44 -47 -104 -38 -166 24 -50 50
-56 68 -34 101 23 36 45 48 70 40 12 -4 20 -2 20 6 0 13 55 7 123 -13z
m-12850 -122 c6 -15 -11 -36 -29 -36 -17 0 -24 26 -11 39 15 15 34 14 40 -3z
m-1934 -68 c10 -27 -3 -48 -30 -48 -22 0 -35 36 -19 55 18 22 39 18 49 -7z
m17609 -32 c4 -21 -14 -37 -35 -29 -14 5 -18 35 -6 47 12 12 38 1 41 -18z
m462 -22 c11 -12 10 -18 -3 -31 -13 -13 -19 -14 -31 -3 -19 15 -21 36 -3 43
20 9 24 8 37 -9z m-15967 -23 c4 -1 7 -8 7 -16 0 -9 9 -15 25 -15 14 0 25 -5
25 -12 0 -6 7 -19 16 -29 14 -16 13 -20 -8 -53 -13 -20 -32 -36 -43 -37 -11
-1 -31 -3 -45 -4 -18 -3 -39 8 -69 34 l-43 38 23 36 c13 20 29 37 35 37 6 0
17 6 23 14 7 8 20 13 29 11 9 -2 20 -4 25 -4z m-509 -17 c8 -21 -1 -34 -25
-34 -12 0 -19 7 -19 18 0 34 33 45 44 16z m-2812 -23 c2 -4 23 -19 48 -33 37
-21 45 -30 43 -52 -1 -14 3 -26 8 -26 5 0 2 -12 -8 -26 -21 -32 -58 -47 -83
-34 -12 6 -21 6 -25 1 -5 -9 -43 -7 -101 4 -20 5 -42 39 -38 63 1 6 2 21 3 32
0 11 8 20 16 20 8 0 26 12 40 26 14 14 32 23 40 20 8 -3 17 -1 20 4 8 12 32
13 37 1z m6597 -8 c5 -10 22 -18 38 -19 15 -1 31 -3 34 -3 11 -1 16 -71 6 -71
-5 0 -7 -6 -4 -14 4 -10 -3 -13 -27 -13 -17 1 -38 -3 -46 -8 -13 -8 -13 -7 -1
8 8 10 11 20 7 24 -3 4 -12 -1 -19 -10 -6 -10 -24 -20 -39 -22 -22 -4 -27 -2
-25 15 1 12 7 18 14 16 7 -3 13 1 13 9 0 13 -6 14 -49 6 -2 -1 2 -7 8 -15 8
-10 9 -16 1 -21 -14 -9 -24 20 -16 49 4 16 1 26 -9 30 -11 4 -15 -2 -15 -24 0
-22 -4 -28 -15 -24 -11 4 -13 13 -9 28 13 41 58 50 68 14 l6 -23 20 24 c11 13
20 32 20 42 0 24 26 25 39 2z m533 -12 c-9 -5 -13 -25 -12 -52 1 -24 1 -50 1
-56 -1 -18 -50 -16 -57 2 -5 12 -10 13 -20 4 -10 -8 -14 -8 -14 -1 0 6 -7 9
-15 6 -20 -8 -19 6 3 22 16 13 16 13 -1 14 -14 0 -17 5 -12 21 6 18 5 20 -14
10 -12 -7 -21 -16 -21 -20 0 -5 -9 -11 -21 -14 -12 -3 -18 -10 -14 -16 3 -6 0
-11 -8 -11 -10 0 -14 10 -12 33 2 17 3 38 4 46 1 11 5 10 20 -3 12 -11 25 -15
33 -10 19 12 69 14 62 3 -6 -11 48 0 56 11 6 8 30 18 45 19 6 0 4 -3 -3 -8z
m-245 -21 c17 -21 16 -31 -2 -24 -8 4 -15 2 -15 -4 0 -6 6 -12 13 -15 21 -8 0
-19 -37 -19 -20 0 -39 -4 -42 -9 -11 -18 -44 -10 -44 12 0 11 -7 27 -15 36
-27 26 -2 41 68 39 42 -1 66 -6 74 -16z m347 4 c14 -13 17 -13 22 -1 4 12 10
12 28 4 13 -6 21 -17 19 -24 -3 -7 0 -13 6 -13 6 0 11 5 11 10 0 6 10 10 23
10 21 -1 21 -1 3 -15 -10 -8 -24 -25 -30 -37 -9 -18 -21 -24 -54 -25 -23 -2
-42 1 -42 6 0 6 -13 6 -32 0 -46 -13 -49 -12 -38 16 6 16 6 25 0 25 -6 0 -10
7 -10 15 0 18 26 20 34 3 3 -7 3 -3 0 9 -4 20 2 26 38 32 4 0 14 -6 22 -15z
m-496 -55 c-21 -14 -28 -11 -28 12 0 11 -4 17 -10 14 -5 -3 -10 1 -10 10 0 14
5 13 31 -6 23 -16 28 -24 17 -30z m748 38 c10 4 12 0 8 -11 -8 -20 -4 -20 32
-2 29 16 44 13 44 -7 0 -9 -2 -9 -8 -1 -10 16 -49 0 -56 -24 -5 -15 -17 -19
-61 -20 -30 0 -55 3 -55 7 0 10 46 31 66 31 11 0 14 7 10 23 -3 12 -3 17 0 10
3 -7 12 -9 20 -6z m118 -2 c-4 -8 -8 -15 -10 -15 -2 0 -4 7 -4 15 0 8 4 15 10
15 5 0 7 -7 4 -15z m477 -12 c-8 -15 -10 -15 -11 -2 0 17 10 32 18 25 2 -3 -1
-13 -7 -23z m-6871 7 c0 -5 -5 -10 -11 -10 -5 0 -7 5 -4 10 3 6 8 10 11 10 2
0 4 -4 4 -10z m4600 -5 c14 -16 10 -18 -14 -9 -9 3 -16 10 -16 15 0 14 16 11
30 -6z m1600 -1 c0 -8 -4 -13 -9 -10 -5 4 -12 0 -14 -6 -3 -7 -6 -3 -6 10 -1
13 5 22 14 22 8 0 15 -7 15 -16z m240 3 c0 -8 -6 -14 -13 -14 -8 0 -14 6 -14
14 0 7 6 13 14 13 7 0 13 -6 13 -13z m68 -22 c-3 -3 -9 2 -12 12 -6 14 -5 15
5 6 7 -7 10 -15 7 -18z m-6543 -15 c-10 -11 -23 -20 -29 -20 -6 0 0 9 14 20
32 25 38 25 15 0z m305 10 c0 -5 -4 -10 -10 -10 -5 0 -10 5 -10 10 0 6 5 10
10 10 6 0 10 -4 10 -10z m5490 -31 c0 -5 -7 -9 -15 -9 -9 0 -12 6 -9 15 6 15
24 11 24 -6z m730 0 c0 -6 -4 -7 -10 -4 -5 3 -10 11 -10 16 0 6 5 7 10 4 6 -3
10 -11 10 -16z m-719 -260 c8 -16 8 -24 0 -32 -14 -14 -31 6 -31 36 0 23 17
22 31 -4z m1618 -26 c7 -3 17 0 22 8 6 10 9 8 10 -11 1 -14 1 -29 0 -33 -1 -5
2 -6 6 -4 5 3 13 0 19 -7 19 -21 -25 -70 -66 -74 -19 -2 -40 -10 -46 -18 -10
-12 -19 -12 -65 -1 -29 8 -55 19 -57 26 -2 6 -8 9 -13 5 -5 -3 -10 4 -10 15
-5 76 -4 78 15 73 10 -3 22 1 27 9 4 8 12 14 16 15 4 0 19 5 33 11 49 20 55
21 75 7 11 -8 26 -17 34 -21z m-1447 -8 c-3 -27 14 -49 30 -39 4 3 8 16 8 30
0 19 5 24 24 24 14 0 28 5 31 10 12 19 24 10 43 -29 14 -31 21 -38 32 -30 13
8 13 11 -2 23 -30 23 -20 31 39 32 47 0 61 -4 75 -20 10 -12 18 -28 18 -36 1
-8 6 -3 11 12 12 31 39 47 32 18 -4 -16 0 -18 26 -15 18 2 29 0 26 -4 -3 -5 2
-12 11 -15 8 -3 12 -11 8 -17 -4 -8 0 -9 15 -4 15 4 21 2 21 -9 0 -26 -12 -46
-28 -46 -13 0 -12 3 4 14 17 13 16 14 -23 12 -23 -2 -49 -8 -57 -15 -8 -7 -19
-10 -25 -7 -5 3 -12 -1 -15 -10 -5 -14 -9 -14 -23 -3 -10 9 -34 13 -65 11 -30
-3 -48 0 -48 7 0 6 -7 11 -16 11 -8 0 -12 -5 -9 -10 4 -7 -10 -9 -39 -8 -25 2
-46 6 -46 9 0 16 -34 19 -42 4 -12 -20 -29 -10 -21 13 6 16 5 16 -14 0 -20
-18 -44 -24 -42 -10 3 20 -2 32 -16 32 -19 0 -19 9 0 34 24 32 17 43 -8 14
l-24 -28 -1 30 c-1 25 3 30 24 30 13 0 24 3 24 8 0 4 15 6 32 6 30 -1 33 -4
30 -29z m-4983 4 c18 -15 21 -23 13 -31 -7 -7 -12 -22 -12 -35 0 -29 -21 -38
-51 -22 -25 13 -58 49 -59 62 0 13 24 34 46 40 33 8 38 7 63 -14z m5545 12 c3
-5 -1 -11 -9 -14 -9 -4 -12 -1 -8 9 6 16 10 17 17 5z m-84 -21 c0 -5 -5 -10
-11 -10 -5 0 -7 5 -4 10 3 6 8 10 11 10 2 0 4 -4 4 -10z m-815 -30 c3 -5 1
-10 -4 -10 -6 0 -11 5 -11 10 0 6 2 10 4 10 3 0 8 -4 11 -10z m932 -7 c3 -10
13 -26 22 -36 13 -16 13 -19 1 -27 -8 -6 -28 -10 -43 -10 -25 0 -27 3 -21 22
6 19 5 21 -8 11 -12 -10 -18 -10 -31 0 -14 11 -14 14 -1 32 11 15 17 17 23 7
6 -10 10 -10 21 3 16 20 29 19 37 -2z m126 -30 c-5 -15 -3 -16 8 -5 7 6 20 12
29 12 12 -1 11 -4 -5 -16 -11 -8 -25 -12 -32 -10 -7 3 -17 -3 -22 -12 -6 -9
-11 -12 -11 -5 0 6 -12 13 -27 15 l-28 3 35 17 c45 23 61 23 53 1z m277 7 c0
-5 -7 -10 -15 -10 -8 0 -15 5 -15 10 0 6 7 10 15 10 8 0 15 -4 15 -10z m7683
-74 c15 -12 16 -18 7 -35 -13 -25 -36 -27 -48 -4 -7 11 -6 23 1 35 14 21 16
22 40 4z m-4514 -12 c16 10 17 -38 1 -56 -22 -27 -49 -22 -56 9 -5 17 -3 28 4
31 7 2 12 11 12 19 0 12 3 13 15 3 8 -6 18 -9 24 -6z m-3935 -191 c23 9 30
-53 9 -69 -11 -7 -22 -9 -29 -3 -17 14 -35 -10 -22 -31 6 -10 8 -26 4 -36 -7
-18 -8 -18 -21 -1 -7 10 -12 36 -11 57 1 22 -1 41 -6 41 -4 1 -12 2 -17 3 -5
0 -13 4 -17 9 -13 13 -22 7 -17 -12 6 -23 -8 -33 -27 -20 -12 8 -12 12 -2 16
19 8 14 23 -8 23 -11 0 -20 5 -20 10 0 9 14 14 33 11 4 0 7 5 7 12 0 12 8 13
52 8 3 -1 8 -7 11 -13 2 -7 2 -2 0 11 l-4 23 36 -22 c19 -12 42 -20 49 -17z
m573 15 c-3 -8 -6 -5 -6 6 -1 11 2 17 5 13 3 -3 4 -12 1 -19z m116 8 c2 2 23
-4 46 -14 l42 -19 -31 -13 c-29 -12 -38 -24 -22 -33 4 -3 7 -20 6 -38 -1 -26
-5 -33 -22 -34 -13 -1 -22 4 -22 12 0 7 -5 13 -10 13 -7 0 -7 6 0 20 9 17 8
20 -14 20 -34 0 -43 -18 -17 -36 22 -16 28 -39 12 -48 -13 -9 -46 7 -46 22 0
6 -4 12 -10 11 -5 -1 -9 -5 -8 -10 4 -13 -35 -31 -42 -19 -4 6 -23 7 -46 4
-31 -5 -39 -4 -39 9 0 9 8 16 18 16 9 1 24 1 32 2 8 1 21 0 29 -2 7 -2 16 2
19 10 3 8 0 11 -7 7 -6 -4 -14 0 -17 8 -3 9 -12 16 -19 16 -7 0 -17 11 -22 25
l-8 25 -14 -21 c-11 -19 -11 -21 3 -16 19 7 20 3 6 -24 -16 -28 -50 -25 -43 4
4 21 4 22 -11 3 -14 -18 -21 -15 -17 7 2 12 -17 8 -22 -5 -4 -8 -6 -7 -6 3 -1
9 -7 19 -15 22 -16 7 -66 -28 -66 -46 0 -8 4 -7 12 1 15 15 38 16 38 1 0 -6
-7 -9 -15 -5 -8 3 -15 1 -15 -4 0 -6 5 -10 10 -10 6 0 10 -6 10 -14 0 -17 -33
-27 -51 -15 -7 4 -18 5 -24 1 -5 -4 -38 -7 -73 -8 -51 0 -62 2 -60 15 2 10 -3
15 -14 13 -20 -3 -23 9 -8 24 7 7 5 10 -7 9 -26 -2 -48 -17 -56 -37 -8 -21
-50 -24 -66 -4 -9 10 -8 15 4 20 9 3 15 0 15 -9 0 -8 5 -15 10 -15 10 0 15 49
11 109 -2 27 1 32 13 28 9 -4 16 -2 16 3 0 6 9 10 21 10 15 0 19 -4 15 -16 -4
-10 -1 -14 6 -11 7 2 12 11 10 21 -2 9 2 16 8 16 5 0 10 -4 10 -9 0 -6 15 -5
36 1 28 7 39 7 45 -3 6 -10 13 -10 33 -1 24 11 26 10 27 -16 1 -20 3 -22 6 -6
3 17 10 20 34 16 26 -4 30 -8 26 -28 -2 -13 -3 -24 -2 -24 7 0 43 38 53 55 6
11 12 14 12 8 0 -9 7 -10 27 -2 22 8 30 7 39 -6 8 -10 14 -12 19 -6 10 17 75
14 75 -4 0 -21 13 -19 43 9 22 20 32 23 56 16 16 -4 31 -6 34 -4z m-1039 -32
c3 -9 1 -25 -5 -36 -10 -18 -13 -19 -20 -6 -6 11 -17 14 -31 10 -21 -5 -21 -5
-3 19 21 29 51 35 59 13z m128 -13 c-3 -20 3 -30 26 -43 16 -10 33 -14 37 -10
4 4 2 -3 -5 -15 -10 -15 -21 -20 -38 -17 -17 3 -22 1 -17 -8 4 -7 -3 -2 -14
11 -19 21 -26 20 -22 -3 1 -5 -11 4 -28 19 -28 27 -28 30 -14 52 8 12 12 23 9
23 -4 0 -4 4 -1 10 3 5 20 9 38 8 30 -1 33 -4 29 -27z m9966 0 c6 -1 12 -8 12
-16 0 -7 8 -18 17 -23 16 -9 16 -11 0 -36 -9 -14 -17 -31 -17 -38 0 -8 -15
-14 -38 -16 -28 -2 -40 3 -50 18 -10 16 -10 20 0 20 8 0 5 5 -4 11 -20 11 -24
59 -7 76 6 6 25 9 42 7 18 -1 38 -3 45 -3z m1382 -25 c19 -14 25 -72 8 -82
-34 -21 -82 -21 -103 0 -23 23 -11 67 23 87 27 16 45 15 72 -5z m-11216 -60
c-3 -9 -10 -16 -15 -16 -5 0 -4 9 3 20 14 22 21 20 12 -4z m846 20 c0 -3 -4
-8 -10 -11 -5 -3 -10 -1 -10 4 0 6 5 11 10 11 6 0 10 -2 10 -4z m12179 -5 c19
-12 6 -41 -19 -41 -13 0 -20 7 -20 18 0 31 14 39 39 23z m-13256 -36 c-3 -9
-8 -14 -10 -11 -3 3 -2 9 2 15 9 16 15 13 8 -4z m699 -7 c-7 -7 -12 -8 -12 -2
0 14 12 26 19 19 2 -3 -1 -11 -7 -17z m61 -9 c-6 -6 -17 -8 -24 -3 -9 5 -8 9
7 14 23 9 31 3 17 -11z m-543 1 c13 -9 13 -10 0 -9 -8 0 -24 4 -35 9 l-20 9
20 0 c11 0 27 -4 35 -9z m-1082 -62 c-3 -7 -11 -13 -18 -13 -7 0 -15 6 -17 13
-3 7 4 12 17 12 13 0 20 -5 18 -12z m14781 -42 c9 -11 10 -20 1 -35 -12 -24
-15 -25 -41 -11 -22 12 -25 30 -7 48 16 16 33 15 47 -2z m-4773 -60 c1 0 4
-11 8 -22 5 -17 2 -23 -16 -28 -38 -10 -48 -7 -48 13 0 11 -6 22 -12 24 -8 3
-6 6 5 6 9 1 17 6 17 12 0 8 37 4 46 -5z m4509 -119 c15 5 17 2 13 -15 -4 -15
-2 -22 8 -22 18 0 18 -14 -1 -30 -8 -7 -13 -16 -10 -20 3 -4 -11 -8 -30 -7
-19 1 -35 5 -35 10 0 6 -7 15 -16 21 -13 10 -13 14 5 35 12 13 21 28 21 34 0
5 6 4 14 -2 7 -6 22 -8 31 -4z m2393 -34 c4 -25 -22 -37 -38 -17 -10 11 -10
17 0 29 17 20 34 14 38 -12z m-15206 -180 c1 -16 3 -44 4 -63 4 -66 33 -2019
31 -2085 -3 -95 0 -255 6 -275 l6 -25 173 0 c179 0 201 -2 193 -15 -3 -4 20
-6 50 -3 47 4 54 3 49 -11 -3 -9 -10 -14 -14 -11 -4 3 -13 -2 -19 -9 -9 -10
-9 -16 -1 -21 8 -5 8 -11 -1 -21 -12 -15 -51 -19 -63 -7 -11 12 -46 13 -46 2
0 -7 -53 -9 -165 -7 l-165 3 0 -90 c0 -115 5 -134 32 -127 14 3 19 1 14 -6 -9
-15 40 -27 57 -14 7 6 77 8 176 6 135 -4 168 -7 183 -21 16 -15 20 -15 36 0
15 13 29 14 97 6 44 -6 99 -8 123 -4 39 6 57 -5 32 -20 -19 -11 -129 -12 -123
-1 3 6 0 5 -8 -1 -7 -7 -21 -13 -32 -13 -10 0 -15 -5 -12 -10 4 -6 22 -9 41
-6 18 3 46 1 61 -5 27 -10 27 -11 9 -24 -11 -8 -17 -22 -14 -32 4 -13 -2 -19
-21 -21 -51 -5 -189 -10 -420 -13 l-233 -4 6 -80 c3 -44 6 -100 7 -125 0 -42
1 -43 10 -17 10 25 15 27 62 26 29 -1 116 0 195 3 78 3 142 2 142 -1 0 -3 13
-12 29 -19 25 -11 34 -10 65 7 34 20 48 20 123 5 15 -3 20 -9 16 -20 -3 -8 2
-21 13 -29 21 -16 37 -20 31 -7 -2 4 8 18 21 32 17 17 23 19 19 8 -3 -9 -1
-19 6 -21 14 -5 57 13 57 23 0 11 88 11 95 0 4 -6 11 -7 17 -4 7 4 8 2 4 -4
-5 -8 0 -12 13 -12 12 0 21 -5 21 -11 0 -6 -9 -9 -20 -6 -13 3 -18 1 -13 -6 4
-6 -2 -8 -15 -5 -12 3 -23 1 -25 -6 -3 -8 -9 -7 -21 4 -24 19 -49 22 -42 5 3
-10 0 -12 -12 -9 -10 4 -7 -2 8 -15 14 -11 34 -22 45 -24 21 -4 17 -7 -32 -23
-15 -4 -15 -6 -3 -15 13 -8 12 -11 -4 -24 -18 -13 -86 -20 -166 -15 -40 3 -46
3 -200 1 -63 -1 -188 -4 -277 -8 l-163 -6 0 -91 0 -91 87 2 c251 4 405 1 653
-12 80 -4 164 -8 188 -8 52 1 51 -14 -1 -40 -36 -17 -39 -21 -39 -52 0 -30 2
-33 22 -28 11 3 27 2 36 -1 15 -6 15 -8 -1 -26 -21 -24 -50 -27 -41 -5 4 11
-2 15 -25 15 -23 0 -30 -4 -26 -14 11 -28 -28 -31 -493 -40 -157 -4 -293 -9
-304 -12 -10 -3 -22 0 -26 7 -11 17 -30 -54 -30 -113 l0 -48 43 -2 c23 -1 58
-2 77 -3 19 0 43 -4 54 -9 11 -6 25 -5 35 1 9 6 52 9 96 8 44 -1 88 2 97 6 11
6 34 5 60 -2 49 -13 138 -19 318 -22 91 -2 131 -6 148 -17 12 -8 22 -18 22
-21 0 -3 -18 -14 -40 -24 -46 -21 -44 -30 5 -39 20 -4 33 -11 30 -15 -8 -14
22 -21 68 -17 23 2 34 2 24 -1 -9 -2 -15 -9 -12 -14 4 -5 -10 -9 -30 -9 -20 0
-45 -5 -55 -10 -10 -6 -92 -13 -182 -16 -90 -3 -197 -7 -238 -10 -125 -8 -330
-16 -415 -17 -44 -1 -83 -6 -87 -12 -4 -5 -8 -40 -8 -77 l0 -66 40 -7 c21 -4
44 -4 50 0 21 13 259 13 297 0 25 -9 45 -10 62 -4 13 5 47 7 75 3 28 -4 96 -8
151 -9 55 -1 162 -3 238 -4 75 -2 137 -6 137 -10 0 -4 12 -12 28 -18 l27 -11
-32 -7 c-31 -7 -54 -36 -34 -43 18 -6 13 -18 -11 -29 -25 -11 -51 -6 -42 8 3
5 0 9 -5 9 -6 0 -11 -4 -11 -8 0 -4 -27 -16 -59 -25 -47 -14 -64 -15 -79 -6
-15 9 -26 8 -53 -5 -19 -9 -52 -16 -74 -16 -22 0 -80 -2 -130 -5 -49 -2 -127
-5 -172 -7 -56 -2 -84 -7 -87 -15 -6 -15 -46 -18 -46 -3 0 6 -11 8 -25 6 -14
-3 -23 -1 -20 4 3 5 -16 7 -42 4 -144 -12 -152 -12 -156 -1 -8 22 -27 -67 -27
-125 l0 -58 83 -1 c45 -1 152 -2 237 -3 85 -1 162 -5 170 -11 9 -6 99 -10 210
-11 218 -1 336 -7 346 -17 4 -3 7 -17 8 -29 1 -18 6 -22 23 -20 16 2 21 -2 19
-15 -4 -26 -54 -30 -71 -6 -13 17 -15 17 -57 -5 -42 -21 -77 -25 -313 -33 -5
0 -50 0 -99 2 -71 1 -90 -1 -97 -14 -7 -11 -17 -13 -43 -7 -19 4 -37 5 -40 2
-3 -3 -36 -7 -73 -10 -70 -4 -76 -4 -207 0 l-79 3 -4 -45 c-2 -25 -9 -47 -14
-48 -6 -3 -5 -9 2 -18 6 -7 9 -21 5 -29 -3 -8 -3 -29 1 -46 l6 -30 116 1 c107
0 234 -3 513 -15 59 -2 116 -8 126 -14 11 -6 33 -6 57 -1 23 5 46 5 56 0 9 -5
48 -8 86 -7 75 2 77 1 67 -54 l-5 -26 -172 -8 c-95 -4 -219 -10 -277 -12 -117
-5 -120 -5 -275 -5 -60 0 -150 -1 -200 -3 l-90 -3 -1 -77 c0 -55 -5 -79 -15
-86 -10 -6 -10 -9 -1 -9 7 0 12 -13 12 -29 0 -29 0 -30 51 -25 28 2 55 6 60
10 5 3 12 -2 15 -10 7 -19 35 -20 120 -4 50 9 69 9 87 -1 13 -7 52 -11 92 -10
39 1 104 2 145 1 41 -1 82 -1 90 -1 8 0 40 -6 70 -15 35 -10 58 -12 64 -6 18
18 38 11 31 -10 -8 -27 9 -26 37 2 20 20 23 21 26 6 3 -14 8 -15 28 -8 19 8
26 6 30 -5 4 -8 12 -15 19 -15 22 0 24 -36 3 -49 -22 -14 -213 -21 -658 -24
-285 -2 -295 -3 -302 -22 -10 -33 -9 -125 3 -169 20 -73 18 -69 34 -56 9 8 29
10 52 6 21 -3 58 -8 83 -11 25 -2 66 -7 93 -10 30 -4 47 -2 47 5 0 6 19 11 43
10 23 0 51 0 62 0 50 2 281 -25 286 -33 8 -11 79 -12 135 -3 27 5 44 3 49 -3
3 -6 -1 -11 -9 -11 -9 0 -16 -4 -16 -10 0 -5 7 -10 15 -10 8 0 15 -4 15 -9 0
-5 15 -8 33 -6 26 4 29 2 14 -6 -10 -6 -21 -9 -24 -6 -2 3 -20 -1 -40 -9 -19
-8 -60 -15 -91 -14 -62 1 -63 1 -267 -4 -236 -6 -468 -6 -493 1 l-24 6 3 -116
c2 -64 9 -120 14 -126 6 -5 28 -6 50 -2 22 4 55 3 73 -2 21 -5 38 -5 46 2 15
13 265 8 366 -8 41 -6 98 -12 125 -13 36 -2 50 -7 50 -18 0 -9 8 -14 19 -12
11 2 15 -1 11 -7 -3 -6 -13 -11 -21 -11 -8 0 -14 -4 -14 -8 0 -5 -10 -14 -22
-19 -19 -9 -16 -10 20 -7 52 3 53 -16 1 -29 -19 -4 -187 -10 -374 -12 l-340
-3 -3 -64 c-4 -71 6 -157 16 -141 10 14 370 9 385 -6 8 -8 7 -11 -6 -11 -22 0
-22 -16 1 -29 16 -9 16 -11 -3 -25 -19 -14 -17 -16 30 -18 28 -1 73 -2 100 -3
37 0 49 -4 47 -14 -2 -9 3 -11 13 -7 37 14 95 18 95 7 0 -6 -14 -11 -30 -11
-17 0 -42 -7 -55 -16 -14 -9 -25 -13 -25 -8 0 4 -6 0 -13 -10 -10 -14 -19 -16
-54 -8 -29 7 -45 6 -54 -2 -9 -8 -10 -7 -4 4 8 13 6 13 -7 2 -9 -7 -40 -13
-70 -13 -29 0 -96 -2 -148 -4 -52 -2 -117 -4 -143 -4 -36 -1 -49 -5 -53 -18
-21 -67 -37 -91 -67 -99 -33 -10 -268 -12 -299 -3 -26 7 -47 40 -48 71 0 51
-4 53 -105 53 -74 -1 -99 3 -117 17 l-23 17 21 22 c17 17 25 19 41 10 15 -7
25 -7 38 3 20 15 13 22 -27 27 -16 3 -35 -4 -48 -16 -19 -17 -36 -20 -121 -20
-61 0 -98 -4 -96 -10 1 -5 14 -9 30 -7 19 2 27 -1 27 -12 0 -9 -6 -17 -12 -18
-42 -5 -238 -2 -238 4 0 4 -23 6 -51 3 -43 -3 -50 -2 -45 11 3 9 6 20 6 25 0
5 20 6 45 2 l44 -6 -12 27 c-9 19 -20 26 -39 26 -16 0 -28 2 -28 4 0 2 -3 12
-7 22 -4 11 -3 15 4 11 6 -4 17 0 24 9 8 10 22 14 41 10 15 -3 30 -1 33 4 4 6
16 8 29 4 12 -3 35 0 51 6 18 7 32 7 38 1 5 -5 19 -6 31 -2 21 8 430 5 453 -3
16 -6 23 28 23 120 0 79 -5 99 -21 88 -17 -10 -489 -4 -616 8 -7 1 -13 8 -13
15 0 10 -6 12 -21 8 -13 -5 -19 -3 -15 3 9 15 -43 45 -62 36 -31 -13 -46 -14
-33 -1 14 14 15 30 1 22 -6 -3 -7 1 -4 9 3 9 10 16 14 16 5 0 17 3 27 7 16 6
16 5 4 -10 -12 -15 -11 -17 3 -17 9 0 16 4 16 8 0 12 84 32 108 25 12 -3 22
-12 22 -19 0 -23 32 -16 62 13 24 23 35 26 90 26 35 -1 74 -5 88 -11 30 -11
60 -4 38 9 -16 11 79 11 145 0 26 -4 47 -4 47 0 0 4 14 4 31 -1 18 -5 37 -6
43 -2 6 3 18 7 26 7 12 0 16 20 18 108 l3 107 -29 0 c-82 0 -492 10 -677 17
-115 4 -235 7 -265 8 l-56 0 25 23 24 22 -26 0 c-14 0 -29 -4 -32 -10 -8 -13
-35 -13 -35 0 0 5 11 12 25 16 13 3 27 14 30 24 4 13 16 17 48 17 23 0 36 -2
30 -4 -26 -9 -12 -23 22 -23 24 0 37 6 45 20 9 17 21 20 83 20 39 0 97 1 127
2 30 1 95 0 143 -2 55 -2 91 1 95 7 4 7 35 9 77 7 39 -2 88 -5 110 -6 38 -2
87 5 130 17 11 3 36 -3 57 -13 l36 -19 5 36 c17 109 19 144 13 186 -6 37 -10
44 -21 35 -9 -7 -43 -9 -102 -6 -48 3 -216 8 -372 12 -156 3 -293 9 -305 14
-20 8 -20 9 4 10 32 1 56 15 41 24 -6 4 -20 5 -30 1 -11 -3 -26 1 -36 11 -9
10 -20 13 -23 8 -7 -9 -57 -34 -68 -34 -3 0 -2 9 1 21 7 20 4 20 -63 13 -57
-5 -75 -3 -93 10 l-23 16 24 1 c14 1 48 4 75 6 28 2 142 6 255 9 246 6 486 20
518 29 12 4 28 2 36 -4 9 -8 22 -8 45 0 22 8 40 8 62 0 18 -6 43 -11 55 -11
24 0 24 0 24 131 l0 131 -27 -5 c-102 -21 -142 -24 -253 -21 -222 7 -362 15
-505 28 -77 7 -191 12 -252 11 -62 0 -113 3 -113 7 0 4 -9 8 -20 8 -11 0 -20
6 -20 14 0 8 -12 19 -27 24 -16 6 -22 11 -15 11 7 1 10 6 7 12 -8 13 27 8 37
-5 3 -5 18 -4 35 3 17 7 103 14 208 16 99 3 243 8 320 11 77 3 176 7 220 9 44
2 82 4 85 5 3 1 20 3 38 6 25 3 32 0 32 -14 0 -14 2 -14 9 -3 9 14 53 17 179
10 l62 -4 1 35 c3 60 4 65 12 78 5 7 4 12 -2 12 -6 0 -11 21 -11 48 0 54 -14
86 -23 53 -4 -16 -13 -21 -40 -21 -23 0 -37 6 -41 16 -5 13 -15 15 -48 10 -23
-4 -47 -11 -53 -15 -12 -10 -45 -10 -45 0 0 3 -31 6 -69 5 -38 -1 -67 2 -65 6
3 4 -4 8 -16 8 -12 0 -18 -4 -15 -10 9 -14 -66 -6 -91 10 -21 13 -30 11 -99
-16 -18 -7 -19 -6 -6 10 14 16 8 17 -100 17 -275 0 -514 13 -534 29 -8 7 -15
9 -15 6 0 -4 -9 -2 -20 4 -29 15 -14 32 21 25 18 -4 29 -3 29 4 0 6 -5 11 -11
11 -17 0 1 21 28 31 20 7 30 6 43 -6 13 -12 26 -13 63 -6 26 4 53 13 60 19 8
7 89 13 213 16 109 3 246 7 304 8 58 2 108 0 111 -5 3 -4 32 -2 64 4 39 7 66
7 80 1 13 -6 28 -6 38 -1 9 6 68 10 132 10 l115 1 -1 56 c0 52 -15 154 -18
125 -1 -8 -16 -13 -42 -13 -22 0 -38 4 -34 9 7 12 -185 8 -204 -3 -8 -5 -16
-4 -20 2 -10 16 -188 24 -226 11 -18 -7 -41 -9 -51 -5 -11 4 -55 9 -99 11 -44
3 -81 9 -83 15 -5 13 -39 13 -47 0 -8 -13 -88 -13 -161 1 -63 13 -74 13 -116
5 -17 -3 -31 0 -35 9 -7 11 -74 23 -138 25 -11 0 -26 9 -32 19 -10 16 -9 20
12 25 32 8 85 -4 85 -19 0 -16 38 -27 46 -13 4 6 0 14 -7 19 -12 7 -12 9 0 9
12 0 12 3 3 12 -17 17 -15 31 4 24 9 -4 28 1 42 10 20 13 28 14 48 4 19 -11
26 -10 40 1 12 10 49 14 129 15 62 1 116 3 121 6 5 2 74 5 154 6 263 3 412 10
422 20 11 11 100 3 109 -10 3 -4 26 -5 52 -2 51 7 51 6 47 91 -2 44 -18 111
-19 80 -1 -16 -4 -16 -28 -4 -28 14 -162 15 -184 1 -10 -6 -116 -5 -224 2
-141 9 -273 14 -505 19 -140 4 -304 8 -365 10 -60 2 -121 4 -135 5 -23 0 -23
1 -6 11 11 7 38 9 65 5 54 -7 65 -2 50 25 -11 22 -31 24 -60 7 -18 -11 -23
-10 -43 13 -18 21 -27 24 -41 17 -12 -7 -25 -6 -44 2 l-26 13 33 7 c45 10 48
16 16 33 l-28 15 40 6 c84 13 910 36 1417 39 l97 1 0 37 c0 20 -3 57 -6 83
l-7 46 -41 -5 c-45 -7 -345 -7 -355 -1 -7 5 -145 8 -326 7 -117 0 -466 8 -469
10 0 1 -68 3 -150 4 -104 2 -151 6 -156 15 -6 9 -13 9 -28 1 -11 -6 -31 -11
-44 -10 -13 0 -17 3 -10 6 16 6 16 33 -1 33 -8 0 -17 -3 -21 -7 -4 -4 -23 -6
-43 -4 -29 2 -35 0 -30 -13 5 -13 -2 -16 -39 -16 -25 0 -43 4 -39 9 3 5 -3 12
-12 14 -14 4 -14 5 3 6 21 1 40 28 29 39 -3 3 -19 -2 -34 -11 -33 -19 -51 -22
-51 -7 0 5 18 14 40 20 21 6 46 17 54 25 8 8 23 15 34 15 11 0 31 13 45 29
l25 30 168 7 c93 4 213 7 267 6 55 0 116 5 140 12 30 9 51 10 68 3 14 -6 148
-9 334 -7 171 1 342 2 380 2 39 -1 110 -1 160 -2 49 -1 95 -6 102 -12 11 -9
13 7 11 93 l-3 104 -70 1 c-259 3 -335 7 -335 16 0 5 -4 7 -9 4 -7 -5 -559
-19 -686 -18 -215 1 -332 6 -346 15 -11 7 -26 7 -47 -1 -17 -6 -43 -9 -59 -7
-15 2 -104 5 -196 5 -143 2 -166 4 -156 16 10 12 3 14 -42 14 -30 0 -61 4 -69
10 -16 10 -15 11 20 27 25 12 25 12 -7 12 -26 1 -33 5 -33 22 0 11 -7 27 -14
35 -13 12 -17 12 -34 -7 -11 -11 -23 -16 -26 -11 -3 6 -15 8 -25 5 -24 -6 -36
13 -20 33 6 8 14 12 17 10 2 -3 13 -1 23 4 12 7 20 7 24 0 4 -7 13 -6 27 1 13
7 60 10 117 9 124 -4 146 -4 331 3 85 3 174 6 198 6 l42 1 0 59 0 59 -97 7
c-84 5 -126 11 -223 30 -8 2 -15 4 -15 6 0 1 -11 3 -25 5 -14 1 -47 5 -75 8
-27 4 -142 9 -255 12 -242 6 -330 12 -330 24 0 5 -7 7 -15 4 -8 -4 -15 -1 -15
6 0 6 -5 8 -12 4 -6 -4 -8 -3 -4 4 3 6 -1 15 -10 20 -13 7 -10 10 17 16 18 3
41 14 51 23 11 9 24 18 31 19 7 1 44 10 82 19 39 9 81 19 95 21 142 25 194 34
250 40 69 7 96 11 120 17 8 2 29 7 45 11 17 4 37 10 45 13 8 4 60 16 115 29
166 37 229 55 241 70 9 11 44 14 153 14 l141 0 0 -42 c0 -24 3 -67 6 -95 6
-50 8 -53 35 -53 16 0 29 -5 29 -11 0 -12 110 -6 130 6 16 10 81 -6 73 -18 -8
-13 87 -1 101 13 13 13 53 13 61 1 3 -6 22 -5 48 3 41 12 131 15 142 4 3 -3
29 -1 57 3 38 6 54 5 60 -4 6 -9 10 -9 20 1 15 15 184 17 222 2 18 -7 26 -6
26 1 0 7 12 9 30 7 19 -3 31 0 35 10 9 24 6 220 -4 226 -5 4 -11 2 -13 -3 -2
-6 -20 -5 -45 2 -33 8 -54 8 -93 -2 -36 -9 -83 -11 -158 -7 -101 7 -138 20
-109 38 8 5 6 8 -7 8 -12 0 -16 -5 -12 -15 9 -25 -36 -35 -165 -35 -107 0
-142 8 -106 24 6 3 -6 3 -28 1 -118 -16 -169 -16 -177 -1 -11 20 -28 21 -28 1
0 -16 -53 -21 -86 -8 -14 5 -11 9 17 20 19 7 25 12 14 12 -32 -2 -65 12 -65
27 0 10 6 11 25 4 14 -5 25 -7 25 -5 0 16 -5 20 -21 17 -9 -2 -20 2 -24 9 -10
15 133 8 143 -7 14 -21 63 -26 83 -8 14 12 43 18 106 21 113 5 343 13 366 12
51 -3 241 -2 299 0 l66 3 6 76 c3 43 6 214 6 382 0 168 2 447 4 620 14 968 19
1257 21 1280 1 14 3 42 3 63 l2 37 110 0 110 0 2 -27z m-988 -110 c-3 -71 -9
-155 -14 -188 -5 -33 -13 -128 -16 -210 -7 -182 -9 -185 -100 -185 -54 0 -65
3 -74 21 -26 47 -21 163 21 559 15 140 7 130 103 130 l83 0 -3 -127z m2555 15
c55 -304 66 -379 66 -470 0 -73 -4 -101 -15 -112 -23 -22 -126 -27 -530 -27
-360 1 -365 1 -382 22 -15 18 -18 43 -19 158 0 75 -4 159 -9 186 -5 28 -12
119 -16 203 l-7 152 445 0 446 0 21 -112z m12984 -72 c4 -23 0 -35 -14 -45
-10 -7 -19 -20 -19 -29 0 -12 -4 -12 -21 4 -16 15 -22 16 -28 5 -14 -22 -31
-2 -31 35 0 20 -5 34 -12 35 -9 0 -8 3 2 6 8 3 22 14 33 23 15 15 24 16 52 7
26 -8 34 -16 38 -41z m-3867 -26 c15 0 24 -6 24 -15 0 -8 5 -15 11 -15 19 0 4
-75 -19 -98 -11 -11 -22 -19 -24 -17 -2 3 -20 6 -41 9 -49 6 -54 10 -59 51 -3
27 0 36 14 41 10 3 18 11 18 18 0 18 23 37 38 31 8 -3 25 -5 38 -5z m-1136
-55 c27 -9 44 -63 25 -82 -8 -8 -15 -17 -15 -21 0 -4 -14 -15 -31 -24 -28 -16
-33 -16 -60 -3 -16 9 -29 12 -29 8 0 -5 -7 5 -15 21 -21 40 -19 55 13 86 27
27 61 31 112 15z m-24029 -185 c26 -14 24 -55 -3 -74 -19 -13 -25 -14 -43 -2
-27 18 -31 54 -8 71 22 17 29 18 54 5z m27489 -66 c0 -6 8 -15 18 -19 16 -6
16 -7 0 -16 -10 -6 -18 -18 -18 -27 0 -28 -62 -23 -75 6 -5 12 -13 22 -17 22
-4 0 3 10 15 23 23 24 77 32 77 11z m-23412 -227 c5 -25 -15 -46 -37 -40 -23
6 -33 37 -17 53 16 16 50 8 54 -13z m-5230 -370 c2 -10 -3 -17 -12 -17 -18 0
-29 16 -21 31 9 14 29 6 33 -14z m27120 -107 c13 0 20 -4 17 -10 -3 -5 3 -17
14 -26 19 -17 22 -68 4 -85 -21 -21 -120 -19 -107 2 3 5 -2 9 -10 9 -11 0 -15
8 -14 25 1 14 8 25 15 25 18 0 16 10 -4 27 -10 7 -13 13 -8 12 24 -3 34 2 40
22 5 15 10 18 18 10 6 -6 22 -11 35 -11z m-22968 -53 c0 10 47 -41 52 -57 7
-20 -21 -67 -44 -73 -33 -9 -86 0 -112 19 -26 20 -35 44 -15 44 6 0 9 7 5 15
-6 16 31 48 46 39 4 -3 8 2 8 10 0 12 6 13 30 6 17 -5 30 -6 30 -3z m-1890
-112 c0 -24 -6 -33 -29 -43 -42 -18 -76 -2 -85 40 -3 18 -3 34 2 36 5 1 17 9
28 16 15 12 23 11 51 -3 26 -13 33 -22 33 -46z m-330 24 c0 -26 -36 -44 -54
-27 -13 14 -10 38 7 49 17 11 47 -3 47 -22z m23900 -199 c64 -66 123 -120 131
-120 16 0 113 -89 115 -105 1 -5 2 -18 3 -27 2 -29 147 -180 219 -228 85 -56
136 -112 127 -139 -8 -26 137 -179 225 -237 97 -64 140 -110 140 -151 0 -28
12 -45 79 -113 43 -44 84 -80 90 -80 6 0 22 -18 37 -39 24 -37 25 -41 9 -64
-12 -19 -13 -26 -3 -29 8 -3 4 -11 -12 -24 -72 -58 -90 -95 -90 -186 0 -39 -5
-51 -36 -82 -45 -45 -96 -60 -204 -61 -69 -1 -90 3 -117 19 -18 12 -32 27 -33
35 0 7 -10 22 -22 32 -21 19 -21 20 -2 34 10 8 23 15 28 15 5 0 7 3 3 6 -3 3
3 14 14 25 36 36 6 61 -124 104 -105 34 -139 50 -170 79 -15 14 -25 26 -22 26
3 0 0 6 -7 14 -7 8 -17 13 -21 13 -5 -1 -14 14 -21 35 -12 32 -11 38 6 52 10
9 18 23 18 31 0 9 5 13 10 10 6 -3 10 -2 10 3 0 4 9 18 20 29 17 18 17 23 5
33 -9 8 -15 8 -15 2 0 -6 -21 0 -47 13 -52 24 -163 69 -203 81 -13 4 -44 27
-67 52 -35 37 -41 48 -32 63 5 11 7 24 4 29 -3 6 -3 10 2 10 7 0 12 30 14 89
1 13 4 20 7 15 4 -5 13 -10 21 -12 9 -2 5 9 -11 30 -19 25 -32 32 -51 30 -14
-2 -28 2 -32 7 -3 6 -12 11 -19 11 -8 0 -35 10 -62 22 -27 12 -51 23 -54 23
-32 5 -90 33 -109 51 -13 13 -20 24 -16 24 5 0 1 8 -8 18 -15 16 -15 19 2 29
10 6 19 22 19 35 0 33 5 52 17 61 6 4 4 11 -5 17 -13 8 -12 10 3 10 9 0 17 -5
17 -12 0 -6 3 -8 6 -5 9 8 -37 57 -53 57 -7 0 -57 24 -110 54 l-98 55 1 43 c0
28 9 55 25 79 14 19 38 79 54 132 l30 96 60 4 c33 2 89 3 125 1 l65 -4 115
-120z m4130 -6 c0 -18 -17 -26 -40 -19 -22 7 -26 35 -8 53 9 9 16 8 30 -5 10
-9 18 -22 18 -29z m-29415 -84 c9 -27 -10 -49 -35 -43 -19 5 -28 42 -13 56 14
14 42 6 48 -13z m-1037 -78 c2 -7 -3 -12 -12 -12 -9 0 -16 7 -16 16 0 17 22
14 28 -4z m15002 -21 c0 -10 -24 -21 -47 -21 -13 0 -13 3 -3 15 13 16 50 21
50 6z m-14687 -39 c12 -26 -3 -48 -39 -55 -33 -6 -52 25 -34 58 16 30 60 27
73 -3z m1305 -205 c4 -20 -25 -34 -40 -19 -15 15 -1 44 19 40 10 -2 19 -11 21
-21z m14003 -90 c-5 -5 -22 -6 -38 -2 -25 7 -26 8 -8 15 26 9 60 1 46 -13z
m-373 -2 c-3 -3 -21 -10 -39 -15 -31 -9 -32 -8 -15 5 18 14 66 22 54 10z m117
-36 c-7 -11 -35 -12 -35 -1 0 4 9 8 20 9 11 1 18 -2 15 -8z m182 -3 c0 -8 -6
-12 -14 -9 -7 3 -10 9 -7 14 8 14 21 11 21 -5z m241 -8 c8 -10 3 -13 -21 -12
-18 0 -37 -4 -44 -8 -13 -10 -30 -13 -122 -23 -58 -6 -63 -5 -52 9 7 9 17 14
21 11 4 -3 24 2 44 10 20 8 56 14 81 13 25 0 48 2 52 5 10 11 30 8 41 -5z
m-668 -18 c0 -5 -8 -10 -17 -10 -15 0 -16 2 -3 10 19 12 20 12 20 0z m1114 4
c20 -8 11 -24 -15 -24 -19 0 -25 11 -12 23 8 8 8 8 27 1z m-829 -14 c-3 -5
-16 -10 -28 -10 -18 0 -19 2 -7 10 20 13 43 13 35 0z m125 0 c-20 -13 -60 -13
-60 0 0 6 17 10 38 10 27 0 33 -3 22 -10z m-12086 -36 c21 -8 20 -41 -1 -53
-29 -15 -58 33 -31 50 16 10 13 10 32 3z m26087 -59 c-1 -15 -24 -12 -29 3 -3
9 2 13 12 10 10 -1 17 -7 17 -13z m-3156 -5 c3 -5 1 -10 -4 -10 -6 0 -11 5
-11 10 0 6 2 10 4 10 3 0 8 -4 11 -10z m-25197 -58 c2 -7 -3 -12 -12 -12 -9 0
-16 7 -16 16 0 17 22 14 28 -4z m-1118 -172 c-18 -11 -24 -6 -16 16 5 14 9 15
19 5 9 -9 9 -14 -3 -21z m14698 23 c-10 -2 -26 -2 -35 0 -10 3 -2 5 17 5 19 0
27 -2 18 -5z m-12611 -17 c0 -6 4 -19 8 -28 8 -19 -20 -38 -50 -34 -25 4 -36
37 -20 56 16 18 61 23 62 6z m14628 -16 c0 -20 -5 -25 -27 -26 -16 -1 -28 3
-28 7 0 5 -7 9 -15 9 -8 0 -15 -7 -15 -15 0 -8 7 -15 15 -15 27 0 16 -20 -12
-21 -16 -1 -44 -3 -63 -5 -19 -2 -30 0 -23 4 7 4 11 18 8 30 -2 12 -1 21 3 20
14 -4 112 24 118 34 12 18 39 3 39 -22z m-2053 -4 c-46 -13 -40 -22 21 -30 41
-6 48 -9 34 -17 -9 -6 -21 -8 -26 -4 -5 3 -12 1 -16 -5 -3 -5 -23 -10 -43 -10
-20 0 -49 -6 -64 -14 -23 -12 -29 -12 -39 0 -6 7 -15 12 -19 9 -11 -7 -41 5
-35 14 2 4 -2 8 -10 8 -8 0 -12 -5 -8 -10 6 -11 -37 1 -51 13 -5 5 -2 15 7 24
18 18 31 21 21 5 -5 -8 6 -9 37 -5 24 4 59 6 77 6 17 0 32 4 32 10 0 5 6 7 14
4 7 -3 29 1 47 9 19 8 38 12 44 8 5 -3 -5 -9 -23 -15z m-9994 -322 c22 -4 31
-11 28 -20 -3 -8 0 -14 7 -14 17 0 67 -48 67 -65 0 -29 63 -176 91 -211 23
-29 29 -47 29 -86 0 -62 -10 -73 -133 -133 -54 -27 -100 -51 -102 -55 -15 -25
-11 -62 11 -91 l24 -34 -27 -26 c-16 -15 -39 -46 -52 -68 -23 -38 -41 -50
-150 -100 -19 -9 -52 -33 -74 -53 l-39 -37 26 -44 25 -45 -19 -40 c-11 -22
-32 -50 -46 -61 -15 -12 -23 -21 -18 -21 13 -1 -39 -40 -53 -40 -13 0 -103
-41 -138 -63 -35 -21 -68 -47 -61 -47 4 0 2 -10 -5 -21 -9 -17 -8 -20 2 -14 9
6 11 3 6 -8 -3 -10 -2 -17 3 -17 5 0 17 -12 27 -27 14 -20 15 -27 5 -31 -7 -2
-17 -15 -22 -28 -6 -14 -18 -27 -27 -31 -10 -4 -23 -14 -30 -22 -7 -9 -13 -12
-13 -8 0 5 -12 -1 -26 -12 -15 -11 -30 -18 -35 -15 -5 3 -9 0 -9 -5 0 -6 -7
-11 -15 -11 -8 0 -15 -4 -15 -10 0 -5 -9 -10 -20 -10 -11 0 -20 -5 -20 -11 0
-5 -4 -8 -9 -5 -5 3 -14 -1 -21 -9 -7 -8 -19 -15 -27 -15 -18 0 -78 -61 -78
-80 1 -30 16 -59 36 -65 20 -7 27 -25 9 -25 -5 0 -10 -9 -10 -21 0 -11 -4 -18
-9 -15 -5 3 -14 -1 -21 -9 -7 -8 -9 -15 -4 -16 13 0 -107 -59 -122 -59 -7 0
-17 -6 -21 -13 -4 -7 -19 -18 -33 -24 -14 -7 -43 -24 -65 -38 -22 -14 -47 -28
-55 -32 -8 -3 -18 -11 -22 -16 -10 -16 20 -89 43 -105 21 -14 21 -15 -8 -41
-16 -14 -29 -30 -28 -36 0 -5 -29 -18 -65 -27 -75 -19 -255 -18 -333 2 -41 11
-51 19 -69 54 -12 23 -23 63 -24 91 -2 37 -17 77 -59 163 -32 64 -54 120 -51
130 3 9 49 61 101 114 54 56 97 109 101 125 14 58 101 162 160 192 85 41 142
110 147 173 4 46 119 167 198 209 31 17 73 46 93 64 30 28 36 39 36 75 0 37 6
49 53 98 80 86 117 122 129 122 5 0 38 18 72 40 67 43 99 90 86 125 -4 11 -3
28 2 38 5 9 5 17 1 17 -4 0 -1 6 7 13 8 7 28 29 44 50 15 21 34 36 41 33 16
-6 35 13 29 29 -3 7 13 21 39 33 43 20 108 60 134 82 20 17 36 89 23 105 -9
11 -3 19 32 41 24 15 47 33 51 40 4 8 16 14 25 15 9 0 33 6 52 13 36 12 128
13 188 0z m12222 -75 c0 -5 -4 -7 -10 -4 -5 3 -10 -1 -10 -9 0 -9 -4 -16 -9
-16 -7 0 -8 17 -2 38 3 8 31 0 31 -9z m-16299 -99 c22 -12 25 -33 5 -49 -28
-23 -69 22 -43 48 13 13 14 13 38 1z m2783 -110 c13 0 46 -51 46 -71 0 -7 -3
-10 -6 -6 -3 3 -17 2 -30 -3 -34 -13 -70 3 -78 35 -8 30 17 59 42 50 8 -3 19
-5 26 -5z m13771 -80 c-3 -5 -15 -10 -25 -10 -10 0 -22 5 -25 10 -4 6 7 10 25
10 18 0 29 -4 25 -10z m-200 -50 c3 -5 1 -10 -4 -10 -6 0 -11 5 -11 10 0 6 2
10 4 10 3 0 8 -4 11 -10z m-3210 -29 c-9 -16 -25 -3 -18 15 4 10 9 12 15 6 6
-6 7 -15 3 -21z m3345 20 c0 -18 -18 -21 -30 -6 -10 13 -9 15 9 15 11 0 21 -4
21 -9z m10720 -31 c0 -5 9 -10 19 -10 25 0 28 -12 24 -95 -5 -119 -9 -129 -48
-141 -35 -11 -37 -10 -69 28 -30 35 -33 43 -28 86 5 42 3 46 -11 34 -14 -12
-15 -10 -12 18 7 54 16 72 32 66 8 -3 21 1 29 9 17 17 64 20 64 5z m-27643
-194 c-9 -22 -34 -20 -47 3 -8 16 -6 22 7 30 22 12 49 -10 40 -33z m16983
-110 c0 -2 -7 -7 -16 -10 -8 -3 -12 -2 -9 4 6 10 25 14 25 6z m-61 -41 c-8 -8
-29 -17 -47 -21 -25 -5 -31 -4 -27 8 3 7 15 15 27 15 12 1 26 9 31 18 7 12 12
14 20 6 8 -8 7 -15 -4 -26z m148 -89 c-5 -14 -47 -21 -47 -8 0 11 16 19 38 19
7 0 11 -5 9 -11z m-3074 -13 c-7 -2 -19 -2 -25 0 -7 3 -2 5 12 5 14 0 19 -2
13 -5z m-12408 -84 c9 -27 -19 -57 -48 -52 -16 3 -22 12 -24 31 -1 30 11 42
44 42 13 0 24 -8 28 -21z m27833 -15 c5 -9 7 -26 5 -38 -4 -18 -10 -22 -28
-18 -27 5 -36 21 -28 51 6 25 38 28 51 5z m-1013 -20 c19 -19 24 -32 19 -47
-10 -34 -24 -47 -50 -47 -17 0 -22 -4 -18 -15 4 -8 1 -15 -6 -15 -6 0 -8 -5
-4 -12 4 -7 3 -8 -4 -4 -6 4 -19 22 -28 41 -9 19 -20 35 -25 35 -17 0 -9 25
11 38 11 7 20 19 20 26 0 8 12 17 28 19 15 2 28 5 29 6 1 0 14 -11 28 -25z
m-11457 -169 c36 14 52 14 52 -2 0 -13 -3 -13 -15 -3 -13 11 -14 10 -10 -3 4
-8 2 -18 -4 -22 -6 -3 -11 -2 -11 3 0 5 -14 12 -31 16 -28 5 -30 8 -18 23 13
15 14 15 17 -1 3 -12 9 -15 20 -11z m-2917 -28 c-13 -13 -26 -3 -16 12 3 6 11
8 17 5 6 -4 6 -10 -1 -17z m14849 3 c0 -21 -33 -29 -45 -10 -9 15 4 30 26 30
12 0 19 -7 19 -20z m-14817 -25 c-3 -9 1 -15 11 -15 9 0 16 -4 16 -10 0 -13
-16 -13 -39 2 -15 9 -17 16 -10 30 11 21 31 15 22 -7z m14445 -48 c4 -20 -25
-34 -40 -19 -15 15 -1 44 19 40 10 -2 19 -11 21 -21z m-14087 -232 c-1 -6 -16
-10 -34 -11 -17 0 -42 -4 -55 -8 -14 -5 -27 -2 -36 7 -13 13 -8 15 41 16 31 0
59 3 62 6 7 8 23 1 22 -10z m2679 -35 c0 -5 -4 -10 -10 -10 -5 0 -10 5 -10 10
0 6 5 10 10 10 6 0 10 -4 10 -10z m13338 -137 c5 -17 -26 -29 -40 -15 -6 6 -7
15 -3 22 9 14 37 9 43 -7z m-550 -21 c2 -7 -3 -12 -12 -12 -9 0 -16 7 -16 16
0 17 22 14 28 -4z m1818 -87 c4 -15 1 -32 -6 -40 -18 -21 -57 -19 -70 5 -16
30 4 60 40 60 23 0 31 -5 36 -25z m-30456 -41 c8 -21 7 -29 -7 -39 -19 -14
-60 -4 -55 14 1 6 -3 11 -10 11 -6 0 -3 9 7 20 25 28 53 25 65 -6z m-2315
-324 c3 -6 -1 -7 -9 -4 -18 7 -21 14 -7 14 6 0 13 -4 16 -10z m18109 -134 c-3
-8 -12 -12 -21 -9 -12 5 -12 7 -1 14 20 13 28 11 22 -5z m26 -15 c0 -6 -4 -13
-10 -16 -5 -3 -10 1 -10 9 0 9 5 16 10 16 6 0 10 -4 10 -9z m-2683 -47 c-3 -3
-12 -4 -19 -1 -8 3 -5 6 6 6 11 1 17 -2 13 -5z m16183 -67 c0 -13 -6 -17 -22
-15 -28 4 -33 21 -12 43 14 13 19 14 25 3 5 -7 9 -21 9 -31z m-28202 -103 c28
-8 39 -48 22 -80 -11 -19 -21 -24 -55 -24 -68 0 -99 51 -55 88 26 22 49 26 88
16z m14672 -148 c0 -9 -40 -13 -46 -5 -3 5 6 9 20 9 14 0 26 -2 26 -4z
m-17650 -176 c0 -5 -4 -10 -10 -10 -5 0 -10 5 -10 10 0 6 5 10 10 10 6 0 10
-4 10 -10z m32428 -71 c-2 -6 -8 -10 -13 -10 -5 0 -11 4 -13 10 -2 6 4 11 13
11 9 0 15 -5 13 -11z m-17016 -556 c15 -14 21 -14 27 -4 11 17 20 16 38 -6 8
-10 11 -12 7 -4 -5 9 -3 12 4 7 25 -15 10 -24 -35 -22 -34 2 -47 7 -45 16 2
10 0 11 -10 2 -16 -13 -44 1 -34 17 10 16 26 14 48 -6z m-14207 -63 c3 -5 -1
-10 -9 -10 -9 0 -16 5 -16 10 0 6 4 10 9 10 6 0 13 -4 16 -10z m15925 -190 c0
-6 28 -10 63 -10 l62 0 -41 -25 c-40 -24 -43 -24 -75 -8 -19 9 -48 16 -65 14
-19 -1 -36 4 -45 15 -12 16 -12 17 4 11 9 -3 17 -2 17 3 0 6 18 10 40 10 22 0
40 -4 40 -10z m-1683 -36 c-3 -3 -12 -4 -19 -1 -8 3 -5 6 6 6 11 1 17 -2 13
-5z m93 -48 c0 -2 -7 -6 -15 -10 -8 -3 -15 -1 -15 4 0 6 7 10 15 10 8 0 15 -2
15 -4z m1056 -255 c7 -35 37 -46 82 -30 24 8 37 7 62 -6 18 -9 42 -14 54 -12
11 3 44 -5 71 -17 l50 -23 -37 -17 c-29 -14 -56 -17 -117 -15 -43 2 -77 1 -75
-2 6 -11 -24 -31 -36 -24 -8 5 -6 14 5 31 14 23 14 24 -4 24 -11 0 -26 3 -35
6 -13 5 -16 -2 -16 -35 0 -23 6 -51 13 -62 10 -17 10 -23 0 -26 -19 -7 -17
-151 2 -183 19 -33 19 -65 0 -94 -12 -19 -15 -48 -11 -151 2 -73 8 -130 14
-134 11 -7 13 -149 3 -166 -4 -5 -8 -26 -10 -45 -4 -46 -18 -70 -40 -70 -10 0
-21 -3 -25 -7 -3 -4 -77 -6 -163 -5 -183 1 -183 1 -196 94 -16 123 -17 149 -4
142 8 -5 8 -3 0 7 -15 15 -18 53 -4 45 13 -8 25 133 17 189 -6 36 -4 46 8 51
13 5 12 9 -4 26 -28 30 -33 70 -16 113 22 51 22 200 1 208 -8 4 -17 2 -20 -4
-4 -5 -65 -9 -147 -7 -83 1 -132 5 -119 9 27 11 27 18 -1 17 -51 -3 -88 3 -88
13 0 8 19 10 65 6 39 -4 65 -2 65 3 0 6 -4 10 -10 10 -17 0 -11 18 8 23 12 3
10 5 -8 7 -23 1 -22 3 10 14 l35 13 -53 8 c-44 6 -55 4 -65 -10 -13 -17 -52
-11 -41 7 3 5 -3 12 -15 15 -23 6 -29 23 -8 23 6 1 59 3 116 6 93 4 103 3 97
-12 -6 -17 4 -17 47 1 12 5 17 2 17 -8 0 -9 10 -17 23 -19 14 -2 21 -9 19 -19
-2 -12 7 -18 33 -21 40 -5 40 -5 20 26 -18 28 -10 56 16 56 13 0 19 7 19 23 0
13 3 27 7 30 3 4 91 7 195 7 l189 0 5 -29z m341 -37 c-3 -3 -12 -4 -19 -1 -8
3 -5 6 6 6 11 1 17 -2 13 -5z m-1034 -79 c4 -8 2 -17 -4 -21 -15 -9 -39 3 -39
21 0 19 36 20 43 0z m852 -75 c-3 -5 -13 -10 -21 -10 -8 0 -12 5 -9 10 3 6 13
10 21 10 8 0 12 -4 9 -10z m-805 -280 c0 -5 -12 -10 -26 -10 -14 0 -23 4 -19
10 3 6 15 10 26 10 10 0 19 -4 19 -10z m-20 -80 c0 -5 -5 -10 -11 -10 -5 0 -7
5 -4 10 3 6 8 10 11 10 2 0 4 -4 4 -10z m120 -2 c0 -4 -9 -8 -21 -8 -11 0 -18
4 -15 8 3 5 12 9 21 9 8 0 15 -4 15 -9z m70 -8 c0 -5 -4 -10 -10 -10 -5 0 -10
5 -10 10 0 6 5 10 10 10 6 0 10 -4 10 -10z m488 -749 c1 -102 6 -189 10 -195
5 -6 9 -35 10 -64 2 -44 -2 -57 -22 -77 -23 -23 -28 -23 -209 -24 l-185 -1
-22 27 c-17 22 -20 35 -15 72 4 26 9 132 11 236 3 105 7 196 9 203 4 10 50 12
207 10 l203 -3 3 -184z m5 -550 c8 -119 -1 -336 -15 -373 -6 -16 -16 -28 -22
-29 -6 0 -81 -1 -166 -3 -165 -3 -203 5 -216 47 -9 28 -9 430 -1 445 6 9 60
12 211 12 l203 0 6 -99z m17267 -3431 l0 -90 -35 0 c-31 0 -35 3 -35 25 0 14
5 25 10 25 6 0 10 -7 10 -15 0 -8 7 -15 15 -15 10 0 15 10 15 30 0 25 -4 30
-25 30 -23 0 -25 3 -25 50 l0 50 35 0 35 0 0 -90z m52 -26 c-2 -35 -8 -64 -13
-64 -11 0 -12 163 -1 174 11 12 17 -39 14 -110z m132 73 c-1 -12 -3 -48 -3
-79 -1 -57 -1 -58 -30 -58 -26 0 -29 4 -33 38 -5 57 0 72 28 72 21 0 24 5 24
38 0 23 3 32 8 24 5 -7 7 -23 6 -35z m216 8 c0 -8 -4 -15 -10 -15 -5 0 -10 7
-10 15 0 8 5 15 10 15 6 0 10 -7 10 -15z m230 -14 c0 -11 6 -22 13 -25 10 -5
10 -7 0 -12 -15 -7 -18 -74 -3 -74 6 0 10 -5 10 -11 0 -6 -8 -9 -17 -7 -28 5
-39 148 -12 148 5 0 9 -9 9 -19z m230 0 c0 -11 6 -22 13 -25 10 -5 10 -7 0
-12 -15 -7 -18 -74 -3 -74 6 0 10 -5 10 -11 0 -6 -8 -9 -17 -7 -28 5 -39 148
-12 148 5 0 9 -9 9 -19z m-1361 -44 c0 -12 -3 -17 -5 -10 -11 26 -34 0 -34
-38 0 -21 -4 -39 -10 -39 -5 0 -10 24 -10 53 0 53 1 54 30 55 25 1 30 -3 29
-21z m91 -33 l0 -55 -32 3 c-30 3 -33 6 -36 42 -5 53 3 66 38 66 30 0 30 0 30
-56z m140 0 c0 -30 -4 -54 -10 -54 -5 0 -10 20 -10 45 0 35 -3 43 -15 39 -10
-4 -15 -20 -15 -45 0 -21 -4 -39 -10 -39 -5 0 -10 20 -10 45 0 35 -3 43 -15
39 -10 -4 -15 -20 -15 -45 0 -21 -4 -39 -10 -39 -5 0 -10 24 -10 53 l0 53 60
1 60 1 0 -54z m40 10 c0 -59 24 -55 28 4 5 62 22 51 22 -14 l0 -55 -32 3 c-32
3 -33 4 -36 56 -2 31 1 52 7 52 6 0 11 -20 11 -46z m137 31 c3 -9 2 -19 -2
-23 -4 -4 -10 -1 -12 6 -5 12 -33 18 -33 7 0 -3 12 -16 27 -29 32 -28 26 -56
-12 -56 -25 0 -45 24 -30 38 4 4 10 1 12 -5 5 -13 33 -19 33 -8 0 3 -12 16
-27 29 -17 15 -24 29 -20 39 8 21 56 22 64 2z m371 -17 c3 -24 0 -28 -22 -28
-17 0 -26 -5 -26 -16 0 -12 6 -15 25 -10 19 5 25 2 25 -9 0 -12 -8 -15 -32
-13 -30 3 -33 6 -36 42 -5 54 3 68 35 64 22 -2 29 -9 31 -30z m47 0 l7 -33 9
33 c12 39 32 44 23 5 -17 -67 -21 -77 -31 -80 -9 -3 -33 66 -33 96 0 25 18 9
25 -21z m75 -23 c0 -30 -4 -55 -10 -55 -5 0 -10 25 -10 55 0 30 5 55 10 55 6
0 10 -25 10 -55z m98 -2 l3 -53 -35 0 c-39 0 -50 11 -41 40 4 13 15 20 31 20
15 0 24 6 24 16 0 12 -6 15 -24 10 -14 -3 -27 -2 -30 3 -9 14 7 22 39 19 29
-3 30 -5 33 -55z m86 41 c12 -31 7 -94 -8 -94 -10 0 -12 12 -10 45 3 36 1 43
-11 39 -10 -4 -15 -20 -15 -45 0 -26 -5 -39 -13 -39 -12 0 -14 30 -8 103 2 14
59 7 65 -9z m154 -41 l3 -53 -35 0 c-19 0 -38 5 -41 10 -11 18 6 50 26 50 11
0 19 7 19 16 0 11 -6 14 -20 9 -14 -5 -20 -2 -20 10 0 12 8 16 33 13 31 -3 32
-4 35 -55z m82 37 c0 -11 -4 -20 -10 -20 -5 0 -10 5 -10 11 0 5 -4 7 -10 4 -5
-3 -10 -24 -10 -46 0 -28 -4 -39 -15 -39 -11 0 -15 12 -15 48 0 57 4 62 42 62
21 0 28 -5 28 -20z m180 0 c0 -11 -4 -20 -10 -20 -5 0 -10 5 -10 10 0 24 -18
7 -22 -20 -5 -30 12 -56 20 -32 6 19 22 14 22 -8 0 -15 -7 -20 -30 -20 -25 0
-30 4 -35 34 -10 52 1 76 36 76 22 0 29 -5 29 -20z m95 -35 c0 -48 -1 -50 -29
-53 -33 -4 -46 10 -46 50 0 47 10 59 44 56 30 -3 31 -4 31 -53z m136 46 c0 -3
2 -27 4 -53 2 -37 -1 -48 -12 -48 -11 0 -13 10 -10 45 3 25 1 45 -4 45 -14 0
-26 -33 -23 -62 2 -19 -2 -28 -12 -28 -11 0 -14 11 -11 45 2 29 -1 44 -7 42
-6 -2 -12 -22 -14 -45 -2 -27 -8 -42 -16 -42 -10 0 -13 16 -13 54 l0 53 58 0
c33 0 59 -3 60 -6z m-1131 -91 c0 -5 -4 -10 -10 -10 -5 0 -10 5 -10 10 0 6 5
10 10 10 6 0 10 -4 10 -10z m820 0 c0 -5 -7 -10 -15 -10 -8 0 -15 5 -15 10 0
6 7 10 15 10 8 0 15 -4 15 -10z"/>
<path d="M16924 16145 c-3 -8 -4 -20 -2 -27 3 -7 7 -1 10 15 6 29 1 36 -8 12z"/>
<path d="M19420 16118 c0 -19 2 -20 10 -8 13 19 13 30 0 30 -5 0 -10 -10 -10
-22z"/>
<path d="M16960 16105 c0 -8 5 -15 10 -15 6 0 10 7 10 15 0 8 -4 15 -10 15 -5
0 -10 -7 -10 -15z"/>
<path d="M19595 16110 c-3 -5 -2 -10 4 -10 5 0 13 5 16 10 3 6 2 10 -4 10 -5
0 -13 -4 -16 -10z"/>
<path d="M16896 16075 c-9 -26 -7 -32 5 -12 6 10 9 21 6 23 -2 3 -7 -2 -11
-11z"/>
<path d="M19710 16086 c0 -2 7 -7 16 -10 8 -3 12 -2 9 4 -6 10 -25 14 -25 6z"/>
<path d="M16770 16070 c0 -5 5 -10 10 -10 6 0 10 5 10 10 0 6 -4 10 -10 10 -5
0 -10 -4 -10 -10z"/>
<path d="M16855 16070 c3 -5 10 -10 16 -10 5 0 9 5 9 10 0 6 -7 10 -16 10 -8
0 -12 -4 -9 -10z"/>
<path d="M20835 15780 c3 -5 8 -10 11 -10 2 0 4 5 4 10 0 6 -5 10 -11 10 -5 0
-7 -4 -4 -10z"/>
<path d="M21110 15764 c0 -8 5 -12 10 -9 6 4 8 11 5 16 -9 14 -15 11 -15 -7z"/>
<path d="M17416 15599 c3 -5 -7 -9 -23 -10 -16 0 -22 -3 -13 -6 8 -3 18 -10
21 -16 4 -6 19 -7 35 -2 16 4 23 10 16 12 -6 3 -10 8 -7 13 3 4 -4 10 -15 13
-11 3 -18 1 -14 -4z"/>
<path d="M17723 15579 c-13 -5 -23 -16 -23 -24 0 -9 4 -14 9 -11 5 4 12 0 14
-6 3 -8 6 -5 6 6 1 13 4 16 14 8 30 -25 77 -15 77 16 0 13 -9 18 -37 18 -21 1
-48 -2 -60 -7z"/>
<path d="M19383 15572 c-9 -15 -8 -19 3 -19 8 0 14 9 14 19 0 10 -1 18 -3 18
-1 0 -7 -8 -14 -18z"/>
<path d="M17485 15570 c-10 -16 4 -30 29 -30 34 0 39 11 10 27 -31 16 -31 16
-39 3z"/>
<path d="M17840 15565 c7 -8 19 -15 26 -15 8 0 11 6 8 15 -4 8 -15 15 -26 15
-17 0 -18 -3 -8 -15z"/>
<path d="M18055 15560 c-3 -5 1 -10 9 -10 9 0 16 5 16 10 0 6 -4 10 -9 10 -6
0 -13 -4 -16 -10z"/>
<path d="M13335 15400 c3 -5 10 -10 16 -10 5 0 9 5 9 10 0 6 -7 10 -16 10 -8
0 -12 -4 -9 -10z"/>
<path d="M27590 15360 c0 -5 4 -10 9 -10 6 0 13 5 16 10 3 6 -1 10 -9 10 -9 0
-16 -4 -16 -10z"/>
<path d="M27085 15330 c-3 -5 1 -10 9 -10 8 0 18 5 21 10 3 6 -1 10 -9 10 -8
0 -18 -4 -21 -10z"/>
<path d="M27185 15309 c0 -26 1 -27 13 -12 6 9 12 20 12 24 0 4 -6 9 -12 12
-9 3 -13 -5 -13 -24z"/>
<path d="M15518 15243 c-18 -5 -14 -33 5 -33 6 0 7 3 4 7 -4 3 -2 12 4 20 6 7
10 12 8 12 -2 -1 -12 -3 -21 -6z"/>
<path d="M14034 15205 c-4 -9 -4 -18 -2 -21 9 -8 39 8 35 19 -6 18 -27 20 -33
2z"/>
<path d="M14803 15213 c-26 -9 -12 -23 23 -23 19 0 33 4 30 9 -7 11 -37 19
-53 14z"/>
<path d="M15040 15216 c0 -9 30 -14 35 -6 4 6 -3 10 -14 10 -12 0 -21 -2 -21
-4z"/>
<path d="M15138 15213 c7 -3 16 -2 19 1 4 3 -2 6 -13 5 -11 0 -14 -3 -6 -6z"/>
<path d="M14740 15200 c0 -5 6 -10 14 -10 8 0 18 5 21 10 3 6 -3 10 -14 10
-12 0 -21 -4 -21 -10z"/>
<path d="M27614 15199 c-3 -6 -2 -15 4 -21 7 -7 14 -3 21 11 10 17 9 21 -3 21
-8 0 -18 -5 -22 -11z"/>
<path d="M27496 15153 c-6 -14 -5 -15 5 -6 7 7 10 15 7 18 -3 3 -9 -2 -12 -12z"/>
<path d="M25010 15119 c-22 -6 -20 -7 13 -8 38 -1 47 3 25 11 -7 3 -24 1 -38
-3z"/>
<path d="M27480 15115 c0 -16 16 -20 24 -6 3 5 -1 11 -9 15 -9 3 -15 0 -15 -9z"/>
<path d="M24933 15113 c9 -2 23 -2 30 0 6 3 -1 5 -18 5 -16 0 -22 -2 -12 -5z"/>
<path d="M16970 14790 c0 -5 5 -10 11 -10 5 0 7 5 4 10 -3 6 -8 10 -11 10 -2
0 -4 -4 -4 -10z"/>
<path d="M17000 14755 c0 -8 7 -15 15 -15 8 0 15 7 15 15 0 8 -7 15 -15 15 -8
0 -15 -7 -15 -15z"/>
<path d="M15570 14615 c0 -9 5 -15 11 -13 6 2 11 8 11 13 0 5 -5 11 -11 13 -6
2 -11 -4 -11 -13z"/>
<path d="M13735 15750 c-3 -5 -1 -10 4 -10 6 0 11 5 11 10 0 6 -2 10 -4 10 -3
0 -8 -4 -11 -10z"/>
<path d="M13736 15721 c-3 -4 7 -8 21 -9 15 -1 23 1 19 5 -9 10 -35 13 -40 4z"/>
<path d="M21135 14270 c-3 -5 -1 -10 4 -10 6 0 11 5 11 10 0 6 -2 10 -4 10 -3
0 -8 -4 -11 -10z"/>
<path d="M20027 14263 c-12 -12 -7 -19 15 -20 13 -1 18 1 13 5 -6 4 -13 11
-16 15 -3 4 -9 4 -12 0z"/>
<path d="M16920 14249 c0 -5 5 -7 10 -4 6 3 10 8 10 11 0 2 -4 4 -10 4 -5 0
-10 -5 -10 -11z"/>
<path d="M16965 14239 c-11 -17 1 -21 15 -4 8 9 8 15 2 15 -6 0 -14 -5 -17
-11z"/>
<path d="M13475 14230 c4 -6 11 -8 16 -5 14 9 11 15 -7 15 -8 0 -12 -5 -9 -10z"/>
<path d="M13290 14210 c0 -5 5 -10 10 -10 6 0 10 5 10 10 0 6 -4 10 -10 10 -5
0 -10 -4 -10 -10z"/>
<path d="M18060 13900 c0 -5 5 -10 10 -10 6 0 10 5 10 10 0 6 -4 10 -10 10 -5
0 -10 -4 -10 -10z"/>
<path d="M18084 13889 c-10 -17 -13 -49 -4 -49 17 0 31 29 22 46 -7 13 -11 14
-18 3z"/>
<path d="M18490 13870 c0 -5 5 -10 11 -10 5 0 7 5 4 10 -3 6 -8 10 -11 10 -2
0 -4 -4 -4 -10z"/>
<path d="M18657 13913 c-9 -9 -9 -43 1 -42 4 0 16 4 27 9 18 7 19 8 3 15 -10
4 -15 11 -12 16 6 10 -9 12 -19 2z"/>
<path d="M18735 13869 c-4 -6 -5 -13 -2 -16 7 -7 27 6 27 18 0 12 -17 12 -25
-2z"/>
<path d="M18685 13531 c-3 -5 -1 -12 5 -16 5 -3 10 1 10 9 0 18 -6 21 -15 7z"/>
<path d="M18834 13518 c-4 -13 -1 -24 7 -29 9 -5 15 -4 18 4 2 7 8 17 13 23 5
8 2 13 -11 17 -14 3 -22 -1 -27 -15z"/>
<path d="M18555 13510 c3 -5 8 -10 11 -10 2 0 4 5 4 10 0 6 -5 10 -11 10 -5 0
-7 -4 -4 -10z"/>
<path d="M18910 13466 c0 -18 17 -29 30 -21 8 5 7 11 -1 21 -15 18 -29 18 -29
0z"/>
<path d="M19342 13190 c0 -14 2 -19 5 -12 2 6 2 18 0 25 -3 6 -5 1 -5 -13z"/>
<path d="M18980 13187 c0 -8 7 -21 16 -28 14 -11 15 -10 12 11 -3 26 -28 41
-28 17z"/>
<path d="M19130 13176 c0 -23 -4 -27 -20 -23 -18 5 -20 0 -19 -41 1 -26 4 -38
6 -27 3 11 11 23 19 28 14 8 30 74 20 84 -3 4 -6 -6 -6 -21z"/>
<path d="M19224 13181 c0 -11 4 -17 8 -15 4 3 8 12 8 20 0 8 -4 14 -8 14 -4 0
-8 -9 -8 -19z"/>
<path d="M19266 13191 c-4 -7 -5 -15 -2 -18 9 -9 19 4 14 18 -4 11 -6 11 -12
0z"/>
<path d="M19430 13161 c5 -11 7 -28 3 -38 -5 -15 -2 -14 16 5 22 22 32 26 61
23 11 -1 10 1 -3 9 -9 6 -26 8 -37 5 -11 -4 -20 -2 -20 4 0 6 -7 11 -15 11
-12 0 -13 -4 -5 -19z"/>
<path d="M18950 13155 c0 -8 5 -15 10 -15 6 0 10 7 10 15 0 8 -4 15 -10 15 -5
0 -10 -7 -10 -15z"/>
<path d="M19046 13143 c-11 -37 -15 -76 -7 -67 10 10 25 84 17 84 -3 0 -7 -8
-10 -17z"/>
<path d="M18985 13110 c3 -5 8 -10 11 -10 2 0 4 5 4 10 0 6 -5 10 -11 10 -5 0
-7 -4 -4 -10z"/>
<path d="M18466 13173 c-6 -14 -5 -15 5 -6 7 7 10 15 7 18 -3 3 -9 -2 -12 -12z"/>
<path d="M18576 13153 c-6 -14 -5 -15 5 -6 7 7 10 15 7 18 -3 3 -9 -2 -12 -12z"/>
<path d="M19072 10090 c0 -19 2 -27 5 -17 2 9 2 25 0 35 -3 9 -5 1 -5 -18z"/>
<path d="M18910 10085 c0 -9 6 -12 15 -9 8 4 15 7 15 9 0 2 -7 5 -15 9 -9 3
-15 0 -15 -9z"/>
<path d="M18282 10083 c-25 -10 0 -23 44 -23 28 0 44 4 44 13 0 12 -63 20 -88
10z"/>
<path d="M19593 10083 c-24 -9 -13 -24 15 -21 15 2 26 8 25 13 -2 12 -23 16
-40 8z"/>
<path d="M19695 10060 c3 -5 8 -10 11 -10 2 0 4 5 4 10 0 6 -5 10 -11 10 -5 0
-7 -4 -4 -10z"/>
<path d="M19620 9710 c8 -5 24 -10 35 -10 17 0 17 2 5 10 -8 5 -24 10 -35 10
-17 0 -17 -2 -5 -10z"/>
<path d="M19390 9695 c0 -8 4 -15 10 -15 5 0 7 7 4 15 -4 8 -8 15 -10 15 -2 0
-4 -7 -4 -15z"/>
<path d="M19076 9685 c4 -8 8 -15 10 -15 2 0 4 7 4 15 0 8 -4 15 -10 15 -5 0
-7 -7 -4 -15z"/>
<path d="M18290 9655 c-14 -16 -10 -18 14 -9 9 3 16 10 16 15 0 14 -16 11 -30
-6z"/>
<path d="M18066 9639 c3 -10 -3 -25 -15 -36 -18 -17 -21 -30 -19 -99 l2 -80
100 -3 c55 -1 104 -5 108 -7 10 -6 82 -6 423 1 138 2 259 4 270 4 35 -2 59 0
98 7 27 5 37 3 38 -7 3 -35 18 74 18 133 l1 68 -147 1 c-179 1 -183 1 -258 -5
-33 -2 -64 -1 -70 3 -5 4 -70 8 -143 9 -74 0 -136 3 -139 6 -3 3 -15 4 -27 1
-12 -3 -66 -7 -121 -9 -83 -3 -101 -1 -112 13 -12 15 -13 15 -7 0z"/>
<path d="M19071 9384 c0 -11 3 -14 6 -6 3 7 2 16 -1 19 -3 4 -6 -2 -5 -13z"/>
<path d="M20146 9338 c3 -5 10 -6 15 -3 13 9 11 12 -6 12 -8 0 -12 -4 -9 -9z"/>
<path d="M20155 9303 c-20 -15 -19 -15 5 -9 14 3 31 6 38 6 6 0 12 5 12 10 0
15 -33 11 -55 -7z"/>
<path d="M17159 9294 c-12 -14 -11 -16 5 -13 11 2 21 10 24 17 5 17 -13 15
-29 -4z"/>
<path d="M20055 9300 c-3 -5 3 -10 14 -10 11 0 23 5 26 10 3 6 -3 10 -14 10
-11 0 -23 -4 -26 -10z"/>
<path d="M17890 9290 c0 -6 7 -10 15 -10 8 0 15 2 15 4 0 2 -7 6 -15 10 -8 3
-15 1 -15 -4z"/>
<path d="M17224 9278 c-3 -4 2 -8 10 -8 8 0 17 4 20 8 3 5 -2 9 -10 9 -8 0
-17 -4 -20 -9z"/>
<path d="M20190 8988 c-16 -6 -20 -12 -12 -15 18 -7 62 5 62 17 0 12 -18 12
-50 -2z"/>
<path d="M17945 8970 c-3 -5 1 -10 9 -10 9 0 16 5 16 10 0 6 -4 10 -9 10 -6 0
-13 -4 -16 -10z"/>
<path d="M20215 8956 c-18 -13 -18 -14 8 -9 15 3 24 9 21 14 -7 12 -7 12 -29
-5z"/>
<path d="M17346 8916 c6 -16 43 -28 57 -19 5 3 -1 12 -14 19 -32 17 -50 17
-43 0z"/>
<path d="M17633 8923 c-7 -2 -13 -9 -13 -14 0 -12 61 -11 80 1 12 8 11 10 -7
10 -12 0 -27 2 -35 4 -7 3 -19 2 -25 -1z"/>
<path d="M17838 8905 c-30 -25 -27 -35 10 -35 18 0 23 4 18 17 -4 9 -2 20 5
23 6 4 7 10 3 13 -5 3 -21 -5 -36 -18z"/>
<path d="M17608 8568 c5 -19 23 -21 77 -9 28 6 29 8 10 18 -11 6 -36 10 -56
10 -29 -1 -35 -4 -31 -19z"/>
<path d="M17788 8523 c-20 -5 -24 -23 -5 -23 6 0 23 3 35 7 18 4 20 8 10 14
-7 5 -15 8 -18 8 -3 -1 -13 -3 -22 -6z"/>
<path d="M18145 8494 c-17 -13 -25 -24 -19 -24 20 0 74 22 74 30 0 19 -28 16
-55 -6z"/>
<path d="M17955 8200 c-3 -5 3 -10 15 -10 12 0 18 5 15 10 -3 6 -10 10 -15 10
-5 0 -12 -4 -15 -10z"/>
<path d="M17930 8170 c0 -5 5 -10 10 -10 6 0 10 5 10 10 0 6 -4 10 -10 10 -5
0 -10 -4 -10 -10z"/>
<path d="M18200 7809 c0 -5 5 -7 10 -4 6 3 10 8 10 11 0 2 -4 4 -10 4 -5 0
-10 -5 -10 -11z"/>
<path d="M17968 7453 c7 -3 16 -2 19 1 4 3 -2 6 -13 5 -11 0 -14 -3 -6 -6z"/>
<path d="M20370 7430 c0 -5 5 -10 11 -10 5 0 7 5 4 10 -3 6 -8 10 -11 10 -2 0
-4 -4 -4 -10z"/>
<path d="M19052 7410 c0 -14 2 -19 5 -12 2 6 2 18 0 25 -3 6 -5 1 -5 -13z"/>
<path d="M20405 7420 c-3 -5 1 -10 9 -10 9 0 16 5 16 10 0 6 -4 10 -9 10 -6 0
-13 -4 -16 -10z"/>
<path d="M19645 6370 c-3 -5 -1 -10 4 -10 6 0 11 5 11 10 0 6 -2 10 -4 10 -3
0 -8 -4 -11 -10z"/>
<path d="M19694 6364 c-18 -14 -18 -15 4 -4 12 6 22 13 22 15 0 8 -5 6 -26
-11z"/>
<path d="M18390 6340 c0 -5 5 -10 11 -10 5 0 7 5 4 10 -3 6 -8 10 -11 10 -2 0
-4 -4 -4 -10z"/>
<path d="M18650 5980 c-9 -17 -8 -20 7 -20 10 0 29 3 42 7 l23 6 -23 13 c-32
18 -37 17 -49 -6z"/>
<path d="M18547 5983 c-12 -12 -7 -21 16 -27 21 -6 21 -7 5 -20 -23 -17 -23
-38 -1 -34 10 2 19 12 22 23 2 11 8 23 14 26 17 12 -1 39 -26 39 -13 0 -27 -3
-30 -7z"/>
<path d="M19022 5970 c-6 -11 -8 -21 -3 -25 5 -3 13 4 16 16 9 28 2 33 -13 9z"/>
<path d="M19705 5960 c-3 -5 0 -10 9 -10 8 0 16 -5 18 -12 2 -6 10 -8 17 -4 9
6 9 11 0 22 -13 16 -35 18 -44 4z"/>
<path d="M18473 5933 c-7 -2 -13 -9 -13 -14 0 -14 26 -10 40 6 10 12 10 15 -1
14 -8 0 -20 -3 -26 -6z"/>
<path d="M18914 5891 c3 -5 15 -7 26 -4 28 7 25 13 -6 13 -14 0 -23 -4 -20 -9z"/>
<path d="M20220 12223 c0 -89 -20 -83 264 -83 138 0 261 3 272 6 19 5 21 10
13 42 -4 19 -16 46 -26 60 l-18 24 -253 2 -252 1 0 -52z"/>
<path d="M19008 5613 c6 -2 18 -2 25 0 6 3 1 5 -13 5 -14 0 -19 -2 -12 -5z"/>
<path d="M18839 5581 c22 -17 23 -19 6 -28 -16 -9 -16 -10 1 -18 18 -7 18 -8
-1 -15 -18 -8 -17 -9 7 -9 15 -1 30 4 33 9 3 6 17 10 30 10 13 0 27 5 30 10 3
6 -3 10 -14 10 -14 0 -21 6 -21 19 0 13 -10 20 -31 25 -56 11 -67 8 -40 -13z"/>
<path d="M19555 5580 c-3 -5 1 -10 9 -10 9 0 16 5 16 10 0 6 -4 10 -9 10 -6 0
-13 -4 -16 -10z"/>
<path d="M18990 5535 c-15 -18 1 -20 18 -3 9 9 14 6 21 -13 l10 -24 0 28 c1
20 -4 27 -18 27 -10 0 -24 -7 -31 -15z"/>
<path d="M18798 5503 c7 -3 16 -2 19 1 4 3 -2 6 -13 5 -11 0 -14 -3 -6 -6z"/>
<path d="M19058 3453 c7 -3 16 -2 19 1 4 3 -2 6 -13 5 -11 0 -14 -3 -6 -6z"/>
<path d="M19098 3453 c6 -2 18 -2 25 0 6 3 1 5 -13 5 -14 0 -19 -2 -12 -5z"/>
<path d="M19178 3453 c7 -3 16 -2 19 1 4 3 -2 6 -13 5 -11 0 -14 -3 -6 -6z"/>
<path d="M19087 3429 c7 -7 15 -10 18 -7 3 3 -2 9 -12 12 -14 6 -15 5 -6 -5z"/>
<path d="M36670 430 c0 -20 5 -30 15 -30 10 0 15 10 15 30 0 20 -5 30 -15 30
-10 0 -15 -10 -15 -30z"/>
<path d="M36857 383 c-11 -19 -1 -58 16 -61 14 -3 17 4 17 32 0 25 -5 36 -14
36 -8 0 -17 -3 -19 -7z"/>
<path d="M36260 355 c0 -24 5 -35 15 -35 10 0 15 11 15 35 0 24 -5 35 -15 35
-10 0 -15 -11 -15 -35z"/>
<path d="M36950 380 c0 -5 7 -10 15 -10 8 0 15 5 15 10 0 6 -7 10 -15 10 -8 0
-15 -4 -15 -10z"/>
<path d="M37168 333 c6 -2 18 -2 25 0 6 3 1 5 -13 5 -14 0 -19 -2 -12 -5z"/>
<path d="M37408 333 c6 -2 18 -2 25 0 6 3 1 5 -13 5 -14 0 -19 -2 -12 -5z"/>
<path d="M37766 368 c-10 -38 -7 -48 14 -48 16 0 20 7 20 35 0 40 -24 49 -34
13z"/>
</g>
</svg>
