<?xml version="1.0" standalone="no"?>
<!DOCTYPE svg PUBLIC "-//W3C//DTD SVG 20010904//EN"
 "http://www.w3.org/TR/2001/REC-SVG-20010904/DTD/svg10.dtd">
<svg version="1.0" xmlns="http://www.w3.org/2000/svg"
 width="512.000000pt" height="512.000000pt" viewBox="0 0 512.000000 512.000000"
 preserveAspectRatio="xMidYMid meet">

<g transform="translate(0.000000,512.000000) scale(0.100000,-0.100000)"
fill="#000000" stroke="none">
<path d="M1158 4900 c-156 -19 -340 -87 -475 -177 -72 -48 -192 -160 -248
-233 -90 -118 -161 -267 -197 -418 -21 -85 -22 -110 -25 -1017 -4 -991 -2
-1055 43 -1214 100 -352 389 -640 733 -733 l81 -21 0 -258 c0 -294 9 -346 78
-438 126 -168 329 -220 525 -135 56 25 98 64 457 420 l395 393 750 4 750 3 94
27 c433 126 730 477 781 923 8 70 10 376 7 1029 -3 821 -6 938 -20 997 -54
218 -136 374 -276 521 -154 161 -323 257 -556 314 -64 15 -187 17 -1450 19
-759 1 -1410 -2 -1447 -6z m2817 -435 c181 -38 349 -168 433 -335 74 -147 72
-114 72 -1138 0 -1014 1 -1001 -66 -1137 -80 -164 -228 -287 -410 -341 -53
-16 -133 -18 -849 -23 -716 -5 -793 -8 -820 -23 -16 -9 -210 -197 -430 -417
-220 -221 -403 -401 -407 -401 -4 0 -9 159 -10 353 l-3 354 -27 39 c-48 68
-82 84 -216 100 -131 15 -198 36 -286 89 -114 68 -197 158 -251 270 -66 140
-65 114 -65 1132 0 1028 -2 994 71 1143 81 163 252 296 429 334 99 22 2733 22
2835 1z"/>
<path d="M1524 3296 c-93 -23 -175 -92 -216 -181 -35 -76 -33 -191 5 -267 30
-62 83 -115 149 -150 36 -19 58 -23 138 -23 80 0 102 4 138 23 66 35 119 88
149 150 38 76 40 191 5 267 -43 93 -130 163 -230 184 -63 13 -72 13 -138 -3z"/>
<path d="M2484 3296 c-93 -23 -175 -92 -216 -181 -35 -76 -33 -191 5 -267 30
-62 83 -115 149 -150 36 -19 58 -23 138 -23 80 0 102 4 138 23 66 35 119 88
149 150 38 76 40 191 5 267 -43 93 -130 163 -230 184 -63 13 -72 13 -138 -3z"/>
<path d="M3444 3296 c-93 -23 -175 -92 -216 -181 -35 -76 -33 -191 5 -267 30
-62 83 -115 149 -150 36 -19 58 -23 138 -23 80 0 102 4 138 23 66 35 119 88
149 150 38 76 40 191 5 267 -43 93 -130 163 -230 184 -63 13 -72 13 -138 -3z"/>
</g>
</svg>
