<svg xmlns="http://www.w3.org/2000/svg" width="640" height="640" viewBox="0 0 640 640" version="1.1"><path d="M 55 4.037 C 33.387 6.614, 12.912 23.768, 5.900 45.172 C 3.877 51.349, 3.513 54.384, 3.585 64.500 C 3.691 79.474, 6.668 89.864, 13.238 98.192 C 15.541 101.111, 65.910 152.121, 125.168 211.548 L 232.909 319.595 147.862 404.548 C 55.532 496.774, 17.999 535.235, 10.070 545.747 C 3.465 554.504, 0.850 562.439, 0.264 575.500 C -0.938 602.300, 12.837 624.018, 36.481 632.601 C 54.208 639.035, 79.506 637.399, 92.190 628.998 C 101.126 623.078, 121.650 603.237, 219.924 505.510 L 319.229 406.758 331.865 419.167 C 338.814 425.992, 385.450 472.299, 435.500 522.072 C 485.550 571.846, 530.550 616.107, 535.500 620.431 C 549.407 632.580, 559.721 636.406, 578.500 636.381 C 597.183 636.357, 611.096 630.944, 623.078 619.037 C 630.403 611.758, 637.374 599.356, 638.551 591.509 C 638.923 589.029, 639.626 587, 640.114 587 C 640.601 587, 641 582.425, 641 576.833 C 641 571.242, 640.696 566.970, 640.325 567.342 C 639.954 567.713, 638.842 564.836, 637.855 560.949 C 636.868 557.062, 634.817 551.597, 633.297 548.804 C 629.015 540.937, 597.763 508.854, 497.955 409.862 L 406.569 319.224 497.439 227.862 C 547.417 177.613, 597.193 127.199, 608.052 115.831 C 625.149 97.933, 628.083 94.394, 629.941 89.427 C 633.469 79.999, 634.289 74.224, 633.763 62.531 C 633.153 48.995, 630.278 39.946, 623.625 30.623 C 614.938 18.449, 604.139 10.952, 589.506 6.938 C 579.328 4.146, 562.828 4.570, 553.658 7.860 C 540.175 12.697, 530.776 21.500, 410.053 142.353 L 319.607 232.898 223.052 136.699 C 127.092 41.092, 103.103 17.918, 93.483 11.532 C 84.220 5.384, 68.834 2.388, 55 4.037 M 0.370 578 C 0.370 583.775, 0.535 586.138, 0.737 583.250 C 0.939 580.362, 0.939 575.638, 0.737 572.750 C 0.535 569.862, 0.370 572.225, 0.370 578" stroke="none" fill="#fffcfc" fill-rule="evenodd"/><path d="" stroke="none" fill="#fcfcfc" fill-rule="evenodd"/></svg>