<?xml version="1.0" encoding="UTF-8"?>
<!DOCTYPE svg PUBLIC "-//W3C//DTD SVG 1.1//EN" "http://www.w3.org/Graphics/SVG/1.1/DTD/svg11.dtd">
<svg xmlns="http://www.w3.org/2000/svg" version="1.1" width="512px" height="512px" style="shape-rendering:geometricPrecision; text-rendering:geometricPrecision; image-rendering:optimizeQuality; fill-rule:evenodd; clip-rule:evenodd" xmlns:xlink="http://www.w3.org/1999/xlink">
<g><path style="opacity:0.978" fill="#000000" d="M 73.5,20.5 C 124.533,20.0274 175.533,20.5274 226.5,22C 253.067,29.9 269.234,47.4 275,74.5C 275.667,108.5 275.667,142.5 275,176.5C 270.082,189.045 260.915,193.879 247.5,191C 240,188.833 235.167,184 233,176.5C 232.667,145.167 232.333,113.833 232,82.5C 229.611,71.4456 222.777,65.2789 211.5,64C 168.833,63.3333 126.167,63.3333 83.5,64C 73.0685,65.104 66.2352,70.604 63,80.5C 62.0059,198.223 62.3392,315.889 64,433.5C 67.7361,441.89 74.2361,446.39 83.5,447C 126.167,447.667 168.833,447.667 211.5,447C 222.777,445.721 229.611,439.554 232,428.5C 232.333,397.167 232.667,365.833 233,334.5C 237.918,321.955 247.085,317.121 260.5,320C 268,322.167 272.833,327 275,334.5C 275.667,368.5 275.667,402.5 275,436.5C 270.728,460.104 257.562,476.604 235.5,486C 230.658,487.948 225.658,489.281 220.5,490C 171.5,490.667 122.5,490.667 73.5,490C 41.572,483.305 23.4053,463.805 19,431.5C 18.3333,314.167 18.3333,196.833 19,79.5C 23.5341,47.136 41.7008,27.4693 73.5,20.5 Z"/></g>
<g><path style="opacity:0.972" fill="#000000" d="M 335.5,105.5 C 341.189,105.089 346.522,106.256 351.5,109C 396,153.5 440.5,198 485,242.5C 491,251.167 491,259.833 485,268.5C 440.5,313 396,357.5 351.5,402C 342.082,407.031 333.082,406.365 324.5,400C 316.232,390.482 315.399,380.315 322,369.5C 352.5,339 383,308.5 413.5,278C 330.5,277.667 247.5,277.333 164.5,277C 148.039,270.966 143.205,259.8 150,243.5C 153.531,238.295 158.364,235.129 164.5,234C 247.5,233.667 330.5,233.333 413.5,233C 383,202.5 352.5,172 322,141.5C 313.43,124.358 317.93,112.358 335.5,105.5 Z"/></g>
</svg>
