<?xml version="1.0" encoding="UTF-8"?>
<!DOCTYPE svg PUBLIC "-//W3C//DTD SVG 1.1//EN" "http://www.w3.org/Graphics/SVG/1.1/DTD/svg11.dtd">
<svg xmlns="http://www.w3.org/2000/svg" version="1.1" width="512px" height="512px" style="shape-rendering:geometricPrecision; text-rendering:geometricPrecision; image-rendering:optimizeQuality; fill-rule:evenodd; clip-rule:evenodd" xmlns:xlink="http://www.w3.org/1999/xlink">
<g><path style="opacity:1" fill="#fefffe" d="M 52.5,72.5 C 188.834,72.3333 325.167,72.5 461.5,73C 468.858,74.6853 471.691,79.1853 470,86.5C 468.729,89.4326 467.062,92.0993 465,94.5C 400.824,158.376 336.991,222.543 273.5,287C 262.167,293 250.833,293 239.5,287C 176,222.833 112.5,158.667 49,94.5C 44.7159,89.9812 43.0492,84.6479 44,78.5C 46.3218,75.6047 49.1552,73.6047 52.5,72.5 Z"/></g>
<g><path style="opacity:1" fill="#fefffe" d="M -0.5,384.5 C -0.5,298.5 -0.5,212.5 -0.5,126.5C 3.32064,116.824 9.65398,114.99 18.5,121C 62.3193,165.653 106.319,210.153 150.5,254.5C 107.378,299.79 63.711,344.623 19.5,389C 10.6734,395.958 4.00676,394.458 -0.5,384.5 Z"/></g>
<g><path style="opacity:1" fill="#fefffe" d="M 511.5,129.5 C 511.5,214.5 511.5,299.5 511.5,384.5C 510.108,389.554 506.775,392.554 501.5,393.5C 497.28,392.724 493.614,390.89 490.5,388C 447.863,343.695 404.863,299.695 361.5,256C 404.806,211.694 448.472,167.694 492.5,124C 501.241,118.307 507.574,120.14 511.5,129.5 Z"/></g>
<g><path style="opacity:1" fill="#fefffe" d="M 178.5,283.5 C 190.298,294.798 201.965,306.298 213.5,318C 242.754,337.608 271.754,337.275 300.5,317C 311.333,306.167 322.167,295.333 333,284.5C 377.029,328.862 420.696,373.529 464,418.5C 468.268,424.21 468.435,429.877 464.5,435.5C 462.615,436.609 460.615,437.443 458.5,438C 323.167,438.667 187.833,438.667 52.5,438C 46.8616,437.198 43.8616,434.031 43.5,428.5C 43.8044,424.886 44.9711,421.552 47,418.5C 90.6732,373.327 134.506,328.327 178.5,283.5 Z"/></g>
</svg>
