<?xml version="1.0" standalone="no"?>
<!DOCTYPE svg PUBLIC "-//W3C//DTD SVG 20010904//EN"
 "http://www.w3.org/TR/2001/REC-SVG-20010904/DTD/svg10.dtd">
<svg version="1.0" xmlns="http://www.w3.org/2000/svg"
 width="512.000000pt" height="512.000000pt" viewBox="0 0 512.000000 512.000000"
 preserveAspectRatio="xMidYMid meet">

<g transform="translate(0.000000,512.000000) scale(0.100000,-0.100000)"
fill="#000000" stroke="none">
<path d="M455 4488 c-55 -48 -62 -23 279 -952 174 -473 320 -864 324 -868 4
-4 807 -7 1783 -6 l1774 3 -2030 923 c-1533 696 -2039 922 -2067 922 -24 0
-46 -8 -63 -22z"/>
<path d="M1044 2425 c-62 -148 -624 -1696 -624 -1718 0 -39 46 -83 96 -91 36
-6 171 53 2042 903 1101 501 2015 917 2030 925 24 13 -179 15 -1751 16 l-1778
0 -15 -35z"/>
</g>
</svg>
