<?xml version="1.0" encoding="UTF-8"?>
<!DOCTYPE svg PUBLIC "-//W3C//DTD SVG 1.1//EN" "http://www.w3.org/Graphics/SVG/1.1/DTD/svg11.dtd">
<svg xmlns="http://www.w3.org/2000/svg" version="1.1" width="512px" height="512px" style="shape-rendering:geometricPrecision; text-rendering:geometricPrecision; image-rendering:optimizeQuality; fill-rule:evenodd; clip-rule:evenodd" xmlns:xlink="http://www.w3.org/1999/xlink">
<g><path style="opacity:1" fill="#fefffe" d="M 265.5,47.5 C 269.514,47.3345 273.514,47.5012 277.5,48C 281.783,50.6153 285.783,53.6153 289.5,57C 357.033,120.201 424.866,183.034 493,245.5C 496.333,252.167 496.333,258.833 493,265.5C 424.866,327.966 357.033,390.799 289.5,454C 285.783,457.385 281.783,460.385 277.5,463C 267.64,465.649 260.473,462.482 256,453.5C 255.5,414.501 255.333,375.501 255.5,336.5C 216.412,336.107 178.412,342.274 141.5,355C 107.922,368.252 82.0882,390.419 64,421.5C 57.2638,433.25 50.9305,445.25 45,457.5C 39.6811,463.167 33.1811,465.001 25.5,463C 21,461.167 17.8333,458 16,453.5C 13.5948,408.717 16.9281,364.384 26,320.5C 44.508,247.327 90.6747,202.494 164.5,186C 194.444,179.132 224.777,175.632 255.5,175.5C 255.333,136.165 255.5,96.8319 256,57.5C 258.022,52.98 261.189,49.6467 265.5,47.5 Z M 50.5,381.5 C 51.3713,354.311 56.5379,327.977 66,302.5C 80.022,269.144 103.522,244.978 136.5,230C 161.207,219.858 186.874,213.524 213.5,211C 234.816,209.304 256.149,207.97 277.5,207C 282,205.167 285.167,202 287,197.5C 287.333,165.5 287.667,133.5 288,101.5C 343.637,152.726 399.137,204.06 454.5,255.5C 399.137,306.94 343.637,358.274 288,409.5C 287.667,377.5 287.333,345.5 287,313.5C 285.167,309 282,305.833 277.5,304C 229.057,301.472 181.724,307.472 135.5,322C 101.469,333.891 73.136,353.724 50.5,381.5 Z"/></g>
</svg>
